<?xml version="1.0" standalone="no"?><!DOCTYPE svg PUBLIC "-//W3C//DTD SVG 1.1//EN" "http://www.w3.org/Graphics/SVG/1.1/DTD/svg11.dtd"><svg t="1600789178213" class="icon" viewBox="0 0 1024 1024" version="1.1" xmlns="http://www.w3.org/2000/svg" p-id="9583" xmlns:xlink="http://www.w3.org/1999/xlink" ><defs><style type="text/css"></style></defs><path d="M945.775 466.93l-116.57-116.644c-2.576-2.554-6.088-4.032-9.706-4.032-3.682 0-7.129 1.479-9.684 4.032L430.802 729.279c-36.309 36.352-99.83 36.395-136.15 0-37.522-37.48-37.522-98.585 0-136.063l379.036-379.079c2.555-2.554 4.043-6.055 4.043-9.652 0-3.682-1.488-7.129-4.043-9.705L557.096 78.188c-5.384-5.342-14.046-5.342-19.388 0L158.673 457.172c-54.528 54.475-84.538 126.997-84.484 204.107 0 77.067 29.956 149.516 84.484 203.979 54.527 54.55 126.965 84.56 204.064 84.56 77.089 0 149.516-30.01 204.043-84.56l378.994-378.992c5.384-5.365 5.384-13.995 0.001-19.336zM547.392 107.177l97.286 97.308-77.854 77.813-97.275-97.275 77.843-77.846zM178.04 476.529l272.205-272.173 97.274 97.275-272.203 272.216c-44.897 44.887-47.452 115.675-8.737 164.181l-97.764 97.754c-43.366-48.037-67.267-109.396-67.267-174.502 0-69.79 27.115-135.46 76.492-184.751z m369.415 369.404c-49.377 49.335-114.94 76.537-184.718 76.537-65.201 0-126.519-23.988-174.587-67.343l97.766-97.754c21.836 17.495 48.429 27.455 76.779 27.455 33.074 0 64.126-12.812 87.474-36.159l272.13-272.162 97.328 97.275-272.172 272.151z m291.454-291.475l-97.264-97.309 77.854-77.875 97.223 97.309-77.813 77.875z" fill="#e0620d" p-id="9584"></path></svg>