<?xml version="1.0" standalone="no"?><!DOCTYPE svg PUBLIC "-//W3C//DTD SVG 1.1//EN" "http://www.w3.org/Graphics/SVG/1.1/DTD/svg11.dtd"><svg t="1598537504419" class="icon" viewBox="0 0 1024 1024" version="1.1" xmlns="http://www.w3.org/2000/svg" p-id="10622" xmlns:xlink="http://www.w3.org/1999/xlink" ><defs><style type="text/css"></style></defs><path d="M855.829333 270.570667a8.533333 8.533333 0 0 1 9.856-1.6l2.218667 1.6 64.725333 64.725333a8.533333 8.533333 0 0 1 1.6 9.856l-1.6 2.218667-64.725333 64.725333a8.533333 8.533333 0 0 1-14.272-3.754667L853.333333 406.058667V362.666667h-132.8c-52.544 0-83.477333 16.576-104.106666 49.941333a21.333333 21.333333 0 1 1-36.309334-22.442667c26.986667-43.605333 68.437333-67.413333 129.450667-69.952l10.965333-0.213333H853.333333v-43.392a8.533333 8.533333 0 0 1 1.130667-4.266667l1.365333-1.770666z" fill="#FFC500" p-id="10623"></path><path d="M377.941333 320c122.325333 0 166.698667 50.602667 199.744 175.573333l4.992 19.712c27.328 109.546667 50.986667 143.850667 129.792 145.941334l8.064 0.106666H853.333333v-43.392a8.533333 8.533333 0 0 1 1.130667-4.266666l1.365333-1.770667a8.533333 8.533333 0 0 1 9.856-1.6l2.218667 1.6 64.725333 64.725333a8.533333 8.533333 0 0 1 1.6 9.856l-1.6 2.218667-64.725333 64.725333a8.533333 8.533333 0 0 1-14.272-3.754666L853.333333 747.392V704h-132.8c-107.797333 0-144.64-45.482667-176.384-167.104l-4.970666-19.712c-28.309333-112.917333-58.090667-152.128-152.213334-154.410667L377.941333 362.666667H128a21.333333 21.333333 0 0 1-3.84-42.325334L128 320h249.941333z" fill="#3654FD" p-id="10624"></path><path d="M528.021333 607.658667a21.333333 21.333333 0 0 1 4.373334 29.845333c-30.805333 41.386667-76.8 63.914667-142.613334 66.282667l-11.84 0.213333H128a21.333333 21.333333 0 0 1-3.84-42.325333L128 661.333333h249.941333c59.242667 0 96.042667-16.789333 120.234667-49.301333a21.333333 21.333333 0 0 1 29.866667-4.373333z" fill="#3654FD" p-id="10625"></path></svg>