<?xml version="1.0" standalone="no"?><!DOCTYPE svg PUBLIC "-//W3C//DTD SVG 1.1//EN" "http://www.w3.org/Graphics/SVG/1.1/DTD/svg11.dtd"><svg t="1597497244346" class="icon" viewBox="0 0 1024 1024" version="1.1" xmlns="http://www.w3.org/2000/svg" p-id="14459" xmlns:xlink="http://www.w3.org/1999/xlink" ><defs><style type="text/css"></style></defs><path d="M252.970667 36.565333a217.898667 217.898667 0 0 1 217.898666 217.898667v217.898667H252.970667a217.898667 217.898667 0 0 1 0-435.797334z" fill="#4B92F9" p-id="14460"></path><path d="M35.029333 769.536a217.898667 217.898667 0 0 1 217.941334-217.898667h217.898666v217.898667a217.898667 217.898667 0 1 1-435.797333 0z" fill="#F45747" p-id="14461"></path><path d="M768 987.434667a217.898667 217.898667 0 0 1-217.898667-217.898667v-217.898667H768a217.898667 217.898667 0 1 1 0 435.797334z" fill="#29CC76" p-id="14462"></path><path d="M985.898667 254.464a217.898667 217.898667 0 0 1-217.898667 217.898667h-217.898667V254.464a217.898667 217.898667 0 1 1 435.797334 0z" fill="#F2A600" p-id="14463"></path></svg>