<?xml version="1.0" standalone="no"?><!DOCTYPE svg PUBLIC "-//W3C//DTD SVG 1.1//EN" "http://www.w3.org/Graphics/SVG/1.1/DTD/svg11.dtd"><svg t="1599402573799" class="icon" viewBox="0 0 1024 1024" version="1.1" xmlns="http://www.w3.org/2000/svg" p-id="1154" xmlns:xlink="http://www.w3.org/1999/xlink" ><defs><style type="text/css"></style></defs><path d="M319.573333 540.416v36.522667a12.8 12.8 0 0 1-25.6 0v-36.522667a12.8 12.8 0 0 1 25.6 0zM345.173333 719.616a9.216 9.216 0 0 1 0 2.133333A12.8 12.8 0 0 1 332.8 731.306667a13.994667 13.994667 0 0 1-3.242667 0 47.018667 47.018667 0 0 1-35.242666-45.482667v-23.552a12.8 12.8 0 0 1 25.6 0v23.210667a21.248 21.248 0 0 0 16.042666 20.650666 12.8 12.8 0 0 1 9.216 13.482667zM498.688 719.616a12.8 12.8 0 0 1-12.8 12.8h-68.266667a12.8 12.8 0 0 1 0-25.6h68.266667a12.8 12.8 0 0 1 12.8 12.8zM693.76 479.573333v36.437334a12.8 12.8 0 1 1-25.6 0V479.573333a12.8 12.8 0 1 1 25.6 0zM693.76 371.029333v23.210667a12.8 12.8 0 0 1-25.6 0v-23.210667a21.248 21.248 0 0 0-16.042667-20.650666 12.714667 12.714667 0 0 1-9.557333-13.482667 10.069333 10.069333 0 0 1 0-2.133333 12.8 12.8 0 0 1 15.616-9.216 46.848 46.848 0 0 1 35.584 45.482666zM582.826667 336.896A12.8 12.8 0 0 1 570.026667 349.866667h-68.266667a12.8 12.8 0 0 1 0-25.6h68.266667a12.8 12.8 0 0 1 12.8 12.629333z" fill="#FF7E00" p-id="1155"></path><path d="M443.221333 813.397333h-230.4v-230.4a34.133333 34.133333 0 0 0-68.266666 0v230.4a68.266667 68.266667 0 0 0 68.266666 68.266667h230.4a34.133333 34.133333 0 0 0 0-68.266667zM778.837333 173.482667h-230.4a34.133333 34.133333 0 0 0 0 68.266666h230.4v230.4a34.133333 34.133333 0 1 0 68.266667 0v-230.4a68.266667 68.266667 0 0 0-68.266667-68.266666z" fill="" p-id="1156"></path><path d="M412.416 56.832H137.984a51.2 51.2 0 0 0-51.2 51.2v274.602667a51.2 51.2 0 0 0 51.2 51.2h274.432a51.2 51.2 0 0 0 51.2-51.2V108.032a51.2 51.2 0 0 0-51.2-51.2z m-17.066667 308.650667H155.050667V125.098667h240.298666zM886.016 590.165333H611.584a51.2 51.2 0 0 0-51.2 51.2v274.517334a51.2 51.2 0 0 0 51.2 51.2h274.517333a51.2 51.2 0 0 0 51.2-51.2V641.365333a51.2 51.2 0 0 0-51.285333-51.2z m-17.066667 308.650667H628.650667V658.432h240.384z" fill="#FF7E00" p-id="1157"></path></svg>