<?xml version="1.0" standalone="no"?><!DOCTYPE svg PUBLIC "-//W3C//DTD SVG 1.1//EN" "http://www.w3.org/Graphics/SVG/1.1/DTD/svg11.dtd"><svg t="1599402296848" class="icon" viewBox="0 0 1024 1024" version="1.1" xmlns="http://www.w3.org/2000/svg" p-id="2506" xmlns:xlink="http://www.w3.org/1999/xlink" ><defs><style type="text/css"></style></defs><path d="M335.78128037 667.76476108V340.50142466c0-9.28295041-7.4997848-16.78273521-16.78273519-16.78273521s-16.78273521 7.4997848-16.7827352 16.78273521v344.04607163c0 9.28295041 7.4997848 16.78273521 16.7827352 16.78273521h386.00290964c9.28295041 0 16.78273521-7.4997848 16.7827352-16.78273522s-7.4997848-16.78273521-16.7827352-16.7827352H335.78128037z" fill="#691FFF" p-id="2507"></path><path d="M496.3186318 419.48517221l-94.92734598 94.92734597c-6.55575594 6.55575594-6.55575594 17.20230359-1e-8 23.75805953s17.20230359 6.55575594 23.75805951 0l83.07453926-83.07453925 83.07453925 83.07453925c6.55575594 6.55575594 17.20230359 6.55575594 23.75805952-1e-8l94.92734598-94.92734598c6.55575594-6.55575594 6.55575594-17.20230359 0-23.75805952s-17.20230359-6.55575594-23.75805952 1e-8L603.09878451 502.55971146 520.02424527 419.48517221c-6.55575594-6.55575594-17.14985753-6.55575594-23.70561347 0z" fill="#E04DFF" p-id="2508"></path></svg>