<?xml version="1.0" standalone="no"?><!DOCTYPE svg PUBLIC "-//W3C//DTD SVG 1.1//EN" "http://www.w3.org/Graphics/SVG/1.1/DTD/svg11.dtd"><svg t="1599402377245" class="icon" viewBox="0 0 1024 1024" version="1.1" xmlns="http://www.w3.org/2000/svg" p-id="4439" xmlns:xlink="http://www.w3.org/1999/xlink" ><defs><style type="text/css"></style></defs><path d="M582.656 462.848c-38.912 38.912-102.4 38.912-141.312 0l-35.328-35.328L476.16 356.864 366.592 247.296c-9.728-9.728-25.6-9.728-35.328 0L119.296 459.776c-9.728 9.728-9.728 25.6 0 35.328l374.784 374.784c9.728 9.728 25.6 9.728 35.328 0l17.92-17.92L494.08 798.72c-9.728-9.728-10.24-25.6-0.512-35.328 9.728-9.728 25.6-10.24 35.328-0.512l0.512 0.512 53.248 53.248 35.328-35.328-53.248-53.248c-9.728-9.728-10.24-25.6-0.512-35.328 9.728-9.728 25.6-10.24 35.328-0.512l0.512 0.512 53.248 53.248 35.328-35.328-53.248-53.248c-10.24-9.216-10.752-25.088-1.024-35.328 9.216-10.24 25.088-10.752 35.328-1.024l1.024 1.024 53.248 53.248 17.92-17.92c9.728-9.728 9.728-25.6 0-35.328l-159.232-159.232z m35.328-35.328l159.232 159.232c6.144 6.144 10.752 12.8 14.848 20.48l112.64-112.64c9.728-9.728 9.728-25.6 0-35.328l-211.968-211.968c-9.728-9.728-25.6-9.728-35.328 0L476.16 427.52c19.456 19.456 51.2 19.456 70.656 0l53.248-53.248c9.728-9.728 25.6-10.24 35.328-0.512 9.728 9.728 10.24 25.6 0.512 35.328l-0.512 0.512-17.408 17.92z m158.72 265.216l-211.968 211.968c-29.184 29.184-76.8 29.184-105.984 0l-374.784-374.784c-29.184-29.184-29.184-76.8 0-105.984l211.968-211.968c29.184-29.184 76.8-29.184 105.984 0l109.568 109.568 109.568-109.568c29.184-29.184 76.8-29.184 105.984 0l211.968 211.968c29.184 29.184 29.184 76.8 0 105.984l-162.304 162.816z" fill="#1296DB" p-id="4440"></path><path d="M511.488 929.28c-19.968 0-39.936-7.68-54.784-22.528L81.92 531.968c-14.848-14.848-22.528-34.304-22.528-54.784 0-20.48 8.192-39.936 22.528-54.784v-0.512h0.512L294.4 209.92c30.208-30.208 79.36-30.208 109.568 0l107.52 107.52L619.52 210.432c30.208-30.208 79.36-30.208 109.568 0l211.968 211.968c14.848 14.848 22.528 34.304 22.528 54.784 0 20.48-8.192 40.448-22.528 54.784l-374.784 374.784c-14.848 15.36-34.816 22.528-54.784 22.528zM86.016 425.984c-13.824 13.824-20.992 31.744-20.992 51.2s7.68 37.376 20.992 51.2L460.8 903.168c28.16 28.16 74.24 28.16 102.4 0l211.968-211.968 2.048 2.048-2.048-2.048 163.328-163.328c13.312-13.824 20.48-31.744 20.48-50.688 0-19.456-7.68-37.376-20.992-51.2l-211.968-211.968c-28.16-28.16-74.24-28.16-102.4 0L511.488 325.12 400.384 214.016c-28.16-28.16-74.24-28.16-102.4 0L86.016 425.984z m425.472 453.632c-7.168 0-14.336-2.56-19.456-8.192L117.76 496.64c-10.752-10.752-10.752-28.16 0-38.912L329.728 245.76c10.752-10.752 28.16-10.752 38.912 0l111.104 111.104-70.656 70.656 33.792 33.792c18.432 18.432 43.008 28.672 69.12 28.672s50.688-10.24 69.12-28.672l2.048-2.048 160.768 160.768c10.752 10.752 10.752 28.16 0 38.912l-19.456 19.456-54.784-54.784-1.024-1.024c-4.608-4.096-10.24-6.144-15.872-6.144-6.144 0-11.776 2.56-15.872 7.168-8.704 9.216-8.192 23.04 1.024 31.744l54.784 54.784-38.912 38.912-55.296-55.296c-4.096-4.096-9.728-6.144-15.36-6.144h-0.512c-6.144 0-11.776 2.56-15.872 6.656-8.704 8.704-8.192 23.04 0.512 31.744l54.784 54.784-38.912 38.912-55.296-55.296c-8.704-8.704-23.04-8.192-31.744 0.512-4.096 4.096-6.656 9.728-6.144 15.872 0 6.144 2.56 11.776 6.656 15.872l54.784 54.784-19.456 19.456c-6.144 5.632-13.312 8.704-20.48 8.704zM349.184 242.688c-5.632 0-11.264 2.048-15.872 6.656L121.344 461.312c-8.704 8.704-8.704 23.04 0 31.744l374.784 374.784c8.704 8.704 23.04 8.704 31.744 0l15.872-15.872-51.2-51.2c-10.752-10.752-11.264-28.16-0.512-38.912 10.752-10.752 28.16-11.264 38.912-0.512l51.712 51.712 31.744-31.744-51.2-51.2c-5.12-5.12-8.192-11.776-8.192-19.456 0-7.168 2.56-14.336 7.68-19.456s11.776-8.192 19.456-8.192 14.336 2.56 19.456 7.68l51.712 51.712 31.744-31.744-51.2-51.2c-11.264-10.24-11.776-27.648-1.024-38.912 5.12-5.12 11.776-8.704 19.456-8.704 7.168 0 14.336 2.56 19.968 7.68l1.024 1.024 51.2 51.2 15.872-15.872c8.704-8.704 8.704-23.04 0-31.744l-157.184-157.184c-18.944 18.432-44.032 28.16-70.656 28.16-27.648 0-53.248-10.752-72.704-30.208l-37.376-37.376 70.656-70.656-107.52-107.52c-5.12-4.608-10.752-6.656-16.384-6.656z m441.344 369.152l-1.536-3.072c-3.584-7.68-8.192-14.336-14.336-19.968L614.4 427.52l19.968-19.968c8.704-8.704 8.192-23.04-0.512-31.744-4.096-4.096-10.24-6.144-15.872-6.144-6.144 0-11.776 2.56-15.872 6.656l-53.248 53.248c-9.728 9.728-23.04 15.36-37.376 15.36-13.824 0-27.136-5.632-37.376-15.36l-2.048-2.048L654.848 245.76c10.752-10.752 28.16-10.752 38.912 0l211.968 211.968c10.752 10.752 10.752 28.16 0 38.912l-115.2 115.2z m-168.96-184.32l157.184 157.184c5.632 5.632 9.728 11.264 13.312 18.432l110.08-110.08c8.704-8.704 8.704-23.04 0-31.744l-211.968-211.968c-8.704-8.704-23.04-8.704-31.744 0L480.256 427.52c8.704 7.68 19.968 12.288 31.744 12.288 12.8 0 24.576-5.12 33.28-13.824l53.248-53.248c5.12-5.12 11.776-8.192 19.456-8.192 7.168 0 14.336 2.56 19.456 7.68 10.752 10.752 11.264 28.16 0.512 38.912l-16.384 16.384z" fill="#1296DB" p-id="4441"></path></svg>