<svg viewBox="0 0 1168 1024" version="1.1" xmlns="http://www.w3.org/2000/svg"><path d="M1168 244v724.8c0 28-23.2 51.2-51.2 51.2H51.2c-28 0-50.4-23.2-50.4-51.2V244c0-28 23.2-51.2 51.2-51.2h1064.8c21.6 0 40.8 13.6 48 32.8 2.4 5.6 3.2 12 3.2 18.4z" fill="#4988FD" p-id="1354"></path><path d="M272.8 376.8H1088c15.2 0 28 12.8 28 28v530.4c0 15.2-12.8 28-28 28H94.4c-15.2 0-28-12.8-28-28V404.8c0-15.2 12.8-28 28-28h111.2" fill="#6097FD" p-id="1355"></path><path d="M1015.2 539.2H636.8c-8.8 0-16-7.2-16-16s7.2-16 16-16h378.4c8.8 0 16 7.2 16 16s-7.2 16-16 16zM1015.2 634.4h-112c-8.8 0-16-7.2-16-16s7.2-16 16-16h112c8.8 0 16 7.2 16 16s-7.2 16-16 16zM848 634.4H636.8c-8.8 0-16-7.2-16-16s7.2-16 16-16H848c8.8 0 16 7.2 16 16s-7.2 16-16 16zM1015.2 728.8h-212.8c-8.8 0-16-7.2-16-16s7.2-16 16-16h212.8c8.8 0 16 7.2 16 16s-7.2 16-16 16zM747.2 728.8H636.8c-8.8 0-16-7.2-16-16s7.2-16 16-16h110.4c8.8 0 16 7.2 16 16s-7.2 16-16 16zM855.2 823.2H636.8c-8.8 0-16-7.2-16-16s7.2-16 16-16h218.4c8.8 0 16 7.2 16 16s-7.2 16-16 16zM728 311.2H440c-8 0-14.4-6.4-14.4-14.4v-23.2c0-8 6.4-14.4 14.4-14.4h288c8 0 14.4 6.4 14.4 14.4v23.2c0 7.2-6.4 14.4-14.4 14.4z" fill="#2767F4" p-id="1356"></path><path d="M629.6 7.2H538.4c-15.2 0-27.2 12-27.2 28V296h146.4V35.2c0-15.2-12.8-28-28-28z m-43.2 118.4c-22.4 0-41.6-18.4-41.6-41.6 0-23.2 18.4-41.6 41.6-41.6 23.2 0 41.6 18.4 41.6 41.6 0 23.2-18.4 41.6-41.6 41.6z" fill="#C5DCFA" p-id="1357"></path><path d="M337.6 676m-188 0a188 188 0 1 0 376 0 188 188 0 1 0-376 0Z" fill="#DFECFD" p-id="1358"></path><path d="M429.6 757.6c0 8.8-8.8 8.8-8.8 8.8H248.8s-8.8 0-8.8-8.8c0-22.4 12.8-40 26.4-57.6 4.8-6.4 13.6-16.8 25.6-28 12 11.2 28 18.4 45.6 18.4 16.8 0 32.8-6.4 44.8-16.8 24 21.6 47.2 54.4 47.2 84z" fill="#4988FD" p-id="1359"></path><path d="M337.6 623.2m-53.6 0a53.6 53.6 0 1 0 107.2 0 53.6 53.6 0 1 0-107.2 0Z" fill="#4988FD" p-id="1360"></path></svg>