<?xml version="1.0" standalone="no"?><!DOCTYPE svg PUBLIC "-//W3C//DTD SVG 1.1//EN" "http://www.w3.org/Graphics/SVG/1.1/DTD/svg11.dtd"><svg t="1599062248149" class="icon" viewBox="0 0 1024 1024" version="1.1" xmlns="http://www.w3.org/2000/svg" p-id="7698" xmlns:xlink="http://www.w3.org/1999/xlink" ><defs><style type="text/css"></style></defs><path d="M14.50063148 352.43716907C-73.80905648 352.43716907-145.39868291 424.02679554-145.39868291 512.33648349a159.8993144 159.8993144 0 0 0 150.26488844 159.59345927l0.58033988 0.03136975a159.92284148 159.92284148 0 0 0 89.01158547-21.17456201q5.79947744-3.34479656 11.24212423-7.1287693c0.54504878-0.39212138 1.09009791-0.7607157 1.63122535-1.14891606l0.87835233-0.63131567 0.0627395-0.04313347a159.90323542 159.90323542 0 0 0 66.12737359-129.49813251C174.39994589 424.02679554 102.81424077 352.43716907 14.50063148 352.43716907z" fill="#ffffff" p-id="7699"></path><path d="M298.242416 305.634883m161.606966 0l102.755367 0q161.606966 0 161.606966 161.606966l0 5.061965q0 161.606966-161.606966 161.606966l-102.755367 0q-161.606966 0-161.606966-161.606966l0-5.061965q0-161.606966 161.606966-161.606966Z" fill="#7F6152" p-id="7700"></path><path d="M603.238289 1015.901133a518.300028 518.300028 0 0 1-182.481304 0V774.229931H603.238289z m0 0" fill="#FCE9E9" p-id="7701"></path><path d="M603.238289 778.001345H420.807103v70.16584c19.15778 18.794422 52.62438 31.324036 90.66429 31.324036a158.22397 158.22397 0 0 0 48.364311-7.304765l-76.768947 150.981853a509.955305 509.955305 0 0 0 120.171532-7.392472v-166.643871l-1.252962-1.027429 1.252962-1.252961z" fill="#FAD5D5" p-id="7702"></path><path d="M214.669888 928.657428L420.807103 848.367659l33.829959 172.445083a508.376573 508.376573 0 0 1-239.854408-92.155314z" fill="#FCE9E9" p-id="7703"></path><path d="M569.245445 1020.812742l33.992844-172.445083 206.074567 80.289769a509.115821 509.115821 0 0 1-240.067411 92.155314z" fill="#FAD5D5" p-id="7704"></path><path d="M603.238289 827.844151l-122.025915 195.223921a510.732141 510.732141 0 0 0 286.25157-67.522091q18.5313-10.687761 35.922405-22.778839c1.741616-1.252961 3.483233-2.430745 5.212319-3.671177l2.806634-2.017268 0.200474-0.137826z" fill="#E3B765" p-id="7705"></path><path d="M300.084269 530.629168c-5.362675-144.842342 94.335467-225.207289 211.750483-225.207288 116.888772 0 216.373911 80.790953 211.750483 221.987178 6.953936-4.109714 17.378575-9.10903 29.444593-2.505923 14.546882 7.943776 15.223481 78.021909-5.149671 121.762792a65.31688 65.31688 0 0 0-6.064333 22.678602c-4.397895 58.889188-7.981364 108.030335-21.989474 108.030335-15.035537 0-13.63222-106.025597-13.544513-106.263659-38.00232 101.489876-116.96395 168.022129-194.2842 168.022128-77.896613 0-146.283248-57.448282-188.244926-152.861295-0.676599 0.3383-5.287497 97.104511-17.817112 97.104511-11.577364 0-13.920402-61.958943-14.208583-112.0774a33.278656 33.278656 0 0 0-6.390103-19.546198c-28.003688-38.177735-34.055492-120.823071-16.940039-126.436339a34.556676 34.556676 0 0 1 31.687395 5.312556z" fill="#F9E3E6" p-id="7706"></path><path d="M494.894713 486.875755a17.102924 17.102924 0 1 0 8.607845-14.810004 17.115453 17.115453 0 0 0-8.545197 14.810004z m0 0M511.822222 758.831035c19.846909 0 35.934934-6.477811 35.934934-14.446645H475.937407c0 7.968835 16.050436 14.446645 35.884815 14.446645z" fill="#D16279" p-id="7707"></path><path d="M275.150336 554.197373a11.026061 11.026061 0 0 1 17.428694-8.495078c3.946829 2.9194 6.953936 7.580417 8.13172 16.163202 2.505923 18.167941-2.505923 30.346726-2.505923 30.346726a70.679555 70.679555 0 0 1 9.397211 26.663019 112.766529 112.766529 0 0 1 0 27.565152s-26.31219-16.188262-30.697556-53.513983a236.133112 236.133112 0 0 1-1.754146-38.729038zM748.656993 554.197373c-0.413477-8.77073-10.39958-13.694869-17.416164-8.495078-3.959358 2.9194-6.953936 7.580417-8.144249 16.163202-2.505923 18.167941 2.505923 30.346726 2.505923 30.346726a70.679555 70.679555 0 0 0-9.397211 26.663019 112.766529 112.766529 0 0 0 0 27.565152s26.31219-16.188262 30.697555-53.513983a236.133112 236.133112 0 0 0 1.754146-38.729038z" fill="#F2B2B1" p-id="7708"></path><path d="M724.211715 480.109763v48.865496a115.360159 115.360159 0 0 0-110.035073-80.678187H409.167092a115.272452 115.272452 0 0 0-110.924676 83.685295v-51.872604c0-97.492929 80.628068-177.268984 179.173485-177.268984h67.659918c98.507828 0 179.135897 79.776055 179.135896 177.268984z" fill="#7F6152" p-id="7709"></path><path d="M440.228006 231.847984m54.215641 0l33.566837 0q54.215641 0 54.215641 54.215642l0 11.853015q0 54.215641-54.215641 54.215641l-33.566837 0q-54.215641 0-54.215641-54.215641l0-11.853015q0-54.215641 54.215641-54.215642Z" fill="#7F6152" p-id="7710"></path><path d="M605.192908 582.952838c-16.288499 0-32.990475 14.62206-32.990474 14.62206l69.752363-2.092446s-20.47339-12.529614-36.761889-12.529614zM380.499334 595.482452l69.752363 2.092446s-16.714506-14.62206-33.003004-14.62206-36.749359 12.529614-36.749359 12.529614z" fill="#262626" p-id="7711"></path><path d="M518.525566 597.574898v91.466185l19.195369-4.786313-19.195369-86.679872z" fill="#F2B2B1" p-id="7712"></path><path d="M665.347587 538.898714c-21.300344 0-83.321936-4.899079-102.116357 10.136458M362.506808 538.898714c21.300344 0 83.321936-4.899079 102.116357 10.136458" fill="#262626" p-id="7713"></path></svg>