<?xml version="1.0" standalone="no"?><!DOCTYPE svg PUBLIC "-//W3C//DTD SVG 1.1//EN" "http://www.w3.org/Graphics/SVG/1.1/DTD/svg11.dtd"><svg t="1606487513336" class="icon" viewBox="0 0 1264 1024" version="1.1" xmlns="http://www.w3.org/2000/svg" p-id="27579" xmlns:xlink="http://www.w3.org/1999/xlink" width="246.875" height="200"><defs><style type="text/css"></style></defs><path d="M194.49679 48.621037v194.49679h632.098766V48.621037h-632.098766zM145.863111 0h729.353482v291.738864H145.863111V0z" fill="#e0620d" p-id="27580"></path><path d="M875.203951 48.621037v194.49679h340.372543V48.621037H875.203951zM826.608198 0H1264.197531v291.738864H826.595556V0zM875.203951 534.856691v194.484149h340.372543V534.856691H875.203951z m-48.608395-48.621037H1264.197531v291.726223H826.595556V486.235654z" fill="#e0620d" p-id="27581"></path><path d="M291.738864 534.856691v194.484149h534.856692V534.856691H291.738864z m-48.621037-48.621037h632.098766v291.726223h-632.098766V486.235654z" fill="#e0620d" p-id="27582"></path><path d="M48.621037 777.961877v194.49679h1166.955457V777.961877H48.621037zM0 729.34084h1264.197531V1021.092346H0V729.34084z" fill="#e0620d" p-id="27583"></path><path d="M48.621037 777.961877v194.49679h437.614617V777.961877H48.621037zM0 729.34084h534.856691V1021.092346H0V729.34084zM48.621037 291.738864v194.49679H388.99358V291.738864H48.621037zM0 243.105185h437.601975v291.738864H0V243.105185z" fill="#e0620d" p-id="27584"></path><path d="M437.601975 291.738864v194.49679h632.098766V291.738864h-632.098766zM388.99358 243.105185h729.353482v291.738864H388.980938V243.105185z" fill="#e0620d" p-id="27585"></path></svg>