<?xml version="1.0" standalone="no"?><!DOCTYPE svg PUBLIC "-//W3C//DTD SVG 1.1//EN" "http://www.w3.org/Graphics/SVG/1.1/DTD/svg11.dtd"><svg t="1598534693841" class="icon" viewBox="0 0 1024 1024" version="1.1" xmlns="http://www.w3.org/2000/svg" p-id="11529" xmlns:xlink="http://www.w3.org/1999/xlink" ><defs><style type="text/css"></style></defs><path d="M511.4 995.2c-64.4 0-124.3-51.6-168.7-145.4-43.3-91.4-67.1-212.7-67.1-341.6s23.8-250.2 67.1-341.6C387.1 72.8 447 21.2 511.4 21.2c64.4 0 124.3 51.6 168.7 145.4 43.3 91.4 67.1 212.7 67.1 341.6S723.3 758.4 680 849.8c-44.4 93.7-104.3 145.4-168.6 145.4z m0-954.4c-28 0-55.4 11.8-81.4 35-26 23.2-49.3 56.5-69.5 99.2-42.1 88.8-65.2 207.2-65.2 333.2s23.2 244.4 65.2 333.2c20.2 42.6 43.6 76 69.5 99.1 26 23.2 53.4 35 81.4 35 28 0 55.4-11.8 81.4-35 25.9-23.2 49.3-56.5 69.5-99.1 42.1-88.8 65.2-207.2 65.2-333.2S704.3 263.8 662.3 175c-20.2-42.6-43.6-76-69.5-99.1-26-23.3-53.4-35.1-81.4-35.1z" fill="#4C4C4C" p-id="11530"></path><path d="M268.7 814.2c-84.3 0-145.1-26.1-173.3-74.9C63.2 683.6 78 605.9 137 520.5c57.5-83.2 150.7-164.5 262.3-228.9 111.6-64.4 228.6-104.5 329.4-112.7 103.4-8.4 178 17.6 210.2 73.4C971 308 956.3 385.7 897.3 471 839.7 554.2 746.6 635.5 635 700l-4.9-8.5 4.9 8.5c-111.6 64.4-228.6 104.5-329.4 112.7-12.8 1-25.1 1.5-36.9 1.5zM765.5 197c-11.3 0-23.1 0.5-35.3 1.5-98 8-212 47.1-321.2 110.1-109.1 63-200 142.2-256 223.1-26.8 38.8-44 75.7-51.1 109.7-7.1 34.1-3.6 63.7 10.4 88 14 24.3 37.9 42.1 71 53 33 10.9 73.6 14.4 120.6 10.6 98-8 212-47.1 321.2-110.1 109.1-63 200-142.2 256-223.1 26.8-38.8 44-75.7 51.1-109.7 7.1-34.1 3.6-63.7-10.4-88-14-24.3-37.9-42.1-71-53-24.4-8-53.1-12.1-85.3-12.1z" fill="#4C4C4C" p-id="11531"></path><path d="M767.9 814.2c-11.8 0-24.2-0.5-36.9-1.6-100.8-8.2-217.8-48.2-329.4-112.7C289.9 635.5 196.8 554.2 139.3 471c-59-85.3-73.8-163-41.6-218.8 32.2-55.7 106.8-81.8 210.2-73.4C408.7 187 525.7 227 637.3 291.5c111.6 64.5 204.8 145.8 262.3 229 59 85.3 73.8 163 41.6 218.8-28.2 48.9-89.1 74.9-173.3 74.9zM271.1 197c-32.3 0-60.9 4-85.3 12.1-33.1 10.9-57 28.7-71 53s-17.5 53.9-10.4 88c7.1 34 24.3 71 51.1 109.7C211.3 540.7 302.2 620 411.4 683c109.1 63 223.2 102.1 321.2 110.1 47 3.8 87.6 0.3 120.6-10.6 33.1-10.9 57-28.7 71-53s17.5-53.9 10.4-88c-7.1-34-24.3-71-51.1-109.7-55.9-80.9-146.8-160.1-255.9-223.1S404.4 206.6 306.4 198.6c-12.3-1.1-24-1.6-35.3-1.6z" fill="#4C4C4C" p-id="11532"></path><path d="M512.3 499m-58.9 0a58.9 58.9 0 1 0 117.8 0 58.9 58.9 0 1 0-117.8 0Z" fill="#437FF9" p-id="11533"></path><path d="M512.3 564.5c-36.1 0-65.5-29.4-65.5-65.5s29.4-65.5 65.5-65.5 65.5 29.4 65.5 65.5c0 36.2-29.4 65.5-65.5 65.5z m0-117.9c-28.9 0-52.4 23.5-52.4 52.4s23.5 52.4 52.4 52.4 52.4-23.5 52.4-52.4-23.5-52.4-52.4-52.4z" fill="#4C4C4C" p-id="11534"></path></svg>