<?xml version="1.0" standalone="no"?><!DOCTYPE svg PUBLIC "-//W3C//DTD SVG 1.1//EN" "http://www.w3.org/Graphics/SVG/1.1/DTD/svg11.dtd"><svg t="1597497000470" class="icon" viewBox="0 0 1024 1024" version="1.1" xmlns="http://www.w3.org/2000/svg" p-id="9806" xmlns:xlink="http://www.w3.org/1999/xlink" ><defs><style type="text/css"></style></defs><path d="M784 832h32c35.2 0 64-28.8 64-64V256c0-35.2-28.8-64-64-64h-32c-17.6 0-32-14.4-32-32s14.4-32 32-32h32c70.4 0 128 57.6 128 128v512c0 70.4-57.6 128-128 128h-32c-17.6 0-32-14.4-32-32s14.4-32 32-32z m-544 0h-32c-35.2 0-64-28.8-64-64V256c0-35.2 28.8-64 64-64h32c17.6 0 32-14.4 32-32s-14.4-32-32-32h-32c-70.4 0-128 57.6-128 128v512c0 70.4 57.6 128 128 128h32c17.6 0 32-14.4 32-32s-14.4-32-32-32z" fill="#3091f2" p-id="9807"></path><path d="M459.2 294.4c20.8 0 36.8 16 36.8 36.8v364.8c0 20.8-16 36.8-36.8 36.8s-36.8-16-36.8-36.8v-145.6h-108.8v145.6c0 20.8-16 36.8-36.8 36.8-20.8 0-36.8-16-36.8-36.8V331.2c0-20.8 16-36.8 36.8-36.8 20.8 0 36.8 16 36.8 36.8v145.6h108.8v-145.6c0-19.2 16-36.8 36.8-36.8z m220.8 184c46.4 32 102.4 70.4 102.4 139.2 0 64-52.8 116.8-116.8 116.8s-116.8-52.8-116.8-116.8c0-19.2 16-36.8 36.8-36.8 19.2 0 36.8 16 36.8 36.8 0 24 20.8 44.8 44.8 44.8 24 0 44.8-20.8 44.8-44.8 0-28.8-27.2-49.6-72-80s-97.6-67.2-97.6-129.6c0-64 52.8-116.8 116.8-116.8s116.8 52.8 116.8 116.8c0 19.2-16 36.8-36.8 36.8-19.2 0-36.8-16-36.8-36.8 0-24-20.8-44.8-44.8-44.8s-44.8 20.8-44.8 44.8c1.6 24 27.2 43.2 67.2 70.4z" fill="#3091f2" p-id="9808"></path></svg>