<?xml version="1.0" standalone="no"?><!DOCTYPE svg PUBLIC "-//W3C//DTD SVG 1.1//EN" "http://www.w3.org/Graphics/SVG/1.1/DTD/svg11.dtd"><svg t="1600169003254" class="icon" viewBox="0 0 1024 1024" version="1.1" xmlns="http://www.w3.org/2000/svg" p-id="16152" xmlns:xlink="http://www.w3.org/1999/xlink" width="648" height="648"><defs><style type="text/css"></style></defs><path d="M485.376 320.512L393.728 267.264v-32.768l121.344-71.168 118.272 71.168v32.768l-89.088 53.248-2.56 32.768-26.624-17.92-29.696 17.92v-32.768z m186.368 212.48V427.008L580.096 373.76v-32.768l118.272-68.096 121.344 68.096v139.264l-121.344 68.096-26.624-15.36z m-278.016 266.24v-135.68l26.624-17.92 91.648 53.248 94.208-53.248 26.624 14.848v139.264l-121.344 71.168-117.76-71.68z m278.016-52.736V640l-29.696-17.92 29.696-14.848v-32.768l26.624 17.92 91.648-53.248 29.696 14.848v139.264l-121.344 68.096-26.624-14.848z m-278.016-159.744V447.488l121.344-68.096 118.272 68.096v139.264L512 654.848l-118.272-68.096z m-189.44 105.984l2.56-139.264 26.624-14.848 91.648 53.248 29.696-17.92v32.768l29.696 17.92-29.696 14.848v106.496l-29.696 14.848-120.832-68.096z m0-212.48l2.56-139.264 121.344-68.096 118.272 68.096V373.76L354.816 426.496v103.424l-29.696 17.92-120.832-67.584z" p-id="16153" fill="#8cbb19"></path><path d="M1022.464 512c0 282.112-228.352 510.464-510.464 510.464S1.536 794.112 1.536 512 229.888 1.536 512 1.536s510.464 228.352 510.464 510.464zM512 54.272c-252.928 0-457.728 204.8-457.728 457.728s204.8 457.728 457.728 457.728 457.728-204.8 457.728-457.728-204.8-457.728-457.728-457.728z" p-id="16154" fill="#8cbb19"></path></svg>