<?xml version="1.0" standalone="no"?><!DOCTYPE svg PUBLIC "-//W3C//DTD SVG 1.1//EN" "http://www.w3.org/Graphics/SVG/1.1/DTD/svg11.dtd"><svg t="1600169274490" class="icon" viewBox="0 0 1024 1024" version="1.1" xmlns="http://www.w3.org/2000/svg" p-id="1099" xmlns:xlink="http://www.w3.org/1999/xlink" width="648" height="648"><defs><style type="text/css"></style></defs><path d="M320.98 180.18h147.55v431.78H320.98z" fill="#9c04eb" p-id="1100"></path><path d="M458 190.72v410.7H331.51v-410.7H458m21.08-21.08H310.44V622.5h168.62V169.64z" fill="#9c04eb" p-id="1101"></path><path d="M963.87 601.42V254H795.24v347.42h76.41v84.31h-21.24A10.37 10.37 0 0 0 840 696.11v0.33a10.37 10.37 0 0 0 10.37 10.37H914a10.37 10.37 0 0 0 10.37-10.37v-0.33A10.37 10.37 0 0 0 914 685.73h-21.27v-84.31zM816.32 275h126.47v305.34H816.32zM155 385.69h21.08a10.54 10.54 0 0 0 10.54-10.54 10.54 10.54 0 0 0-10.54-10.54h-63.26a10.54 10.54 0 0 0-10.54 10.54 10.54 10.54 0 0 0 10.54 10.54h21.08V469H60.13v248.35h73.77v84.31h-21.08a10.54 10.54 0 0 0 0 21.08h63.24a10.54 10.54 0 0 0 0-21.08H155v-84.31h73.78V469H155z m52.7 310.58H81.21V490.1h126.47zM650.33 306.65h21.08a10.54 10.54 0 0 0 0-21.08h-63.24a10.54 10.54 0 0 0 0 21.08h21.08V391h-76.41v463.4h76.41v84.31H608a10.37 10.37 0 0 0-10.37 10.37A10.37 10.37 0 0 0 608 959.43h63.56a10.37 10.37 0 0 0 10.37-10.37 10.37 10.37 0 0 0-10.37-10.37h-21.23v-84.33h71.14V391h-71.14zM700.39 412v421.28H573.92V412zM850.58 169.64h21.08V254h21.08v-84.36h21.08a10.54 10.54 0 0 0 0-21.08h-63.24a10.54 10.54 0 0 0 0 21.08z" fill="#9c04eb" p-id="1102"></path><path d="M355.23 75.11a10.54 10.54 0 0 0 10.54 10.54h21.08v84h21.08v-84H429a10.54 10.54 0 0 0 10.54-10.54A10.54 10.54 0 0 0 429 64.57h-63.23a10.54 10.54 0 0 0-10.54 10.54z m52.7 547.38h-21.08v84.31h-21.08a10.54 10.54 0 0 0-10.54 10.54 10.54 10.54 0 0 0 10.54 10.54H429a10.54 10.54 0 0 0 10.54-10.54A10.54 10.54 0 0 0 429 706.81h-21.08z" fill="#9c04eb" p-id="1103"></path></svg>