<?xml version="1.0" standalone="no"?><!DOCTYPE svg PUBLIC "-//W3C//DTD SVG 1.1//EN" "http://www.w3.org/Graphics/SVG/1.1/DTD/svg11.dtd"><svg t="1597497637290" class="icon" viewBox="0 0 1024 1024" version="1.1" xmlns="http://www.w3.org/2000/svg" p-id="34834" xmlns:xlink="http://www.w3.org/1999/xlink" ><defs><style type="text/css"></style></defs><path d="M512 512m-512 0a512 512 0 1 0 1024 0 512 512 0 1 0-1024 0Z" fill="#FE9C01" p-id="34835"></path><path d="M473.557333 501.333333l253.952-257.109333a31.957333 31.957333 0 0 1 45.568 0c12.586667 12.736 12.586667 33.386667 0 46.144l-7.893333 7.978667 59.264 59.989333a26.325333 26.325333 0 0 1 0 36.906667 25.557333 25.557333 0 0 1-36.48 0l-59.221333-59.989334-22.784 23.082667 36.458666 36.906667a26.325333 26.325333 0 0 1 0 36.906666 25.557333 25.557333 0 0 1-36.48 0l-36.458666-36.906666-150.336 152.234666c38.976 60.693333 32.170667 142.741333-20.416 195.989334a153.344 153.344 0 0 1-218.752 0c-60.416-61.141333-60.416-160.32 0-221.461334a153.322667 153.322667 0 0 1 193.578666-20.693333z m-24.96 191.381334a85.568 85.568 0 0 0 0-119.978667 83.072 83.072 0 0 0-118.506666 0 85.589333 85.589333 0 0 0 0 119.978667 83.072 83.072 0 0 0 118.506666 0z" fill="#FFFFFF" p-id="34836"></path></svg>