<?xml version="1.0" standalone="no"?><!DOCTYPE svg PUBLIC "-//W3C//DTD SVG 1.1//EN" "http://www.w3.org/Graphics/SVG/1.1/DTD/svg11.dtd"><svg t="1600789338937" class="icon" viewBox="0 0 1024 1024" version="1.1" xmlns="http://www.w3.org/2000/svg" p-id="12486" xmlns:xlink="http://www.w3.org/1999/xlink" ><defs><style type="text/css"></style></defs><path d="M880.64 491.52c0-20.48-15.36-35.84-35.84-35.84-20.48 0-35.84 15.36-35.84 35.84 0 5.12 0 10.24 5.12 15.36 0 15.36 5.12 35.84 5.12 71.68 0 215.04-158.72 368.64-368.64 368.64-215.04 0-368.64-158.72-368.64-368.64C81.92 358.4 235.52 204.8 450.56 204.8c35.84 0 40.96 0 66.56 5.12l0 0c0 0 0 0 5.12 0 20.48 0 30.72-15.36 30.72-30.72 0-15.36-10.24-30.72-25.6-30.72l0 0C491.52 133.12 491.52 133.12 450.56 133.12c-240.64 0-440.32 194.56-440.32 440.32 0 240.64 194.56 440.32 440.32 440.32 240.64 0 440.32-194.56 440.32-440.32C890.88 537.6 885.76 517.12 880.64 491.52 880.64 491.52 880.64 491.52 880.64 491.52L880.64 491.52M353.28 880.64C353.28 880.64 353.28 880.64 353.28 880.64 358.4 880.64 358.4 880.64 353.28 880.64c5.12 0 10.24 0 10.24 0 15.36 0 20.48-10.24 25.6-25.6 0-15.36-15.36-20.48-15.36-20.48-51.2-15.36-97.28-46.08-133.12-81.92 0 0-15.36-10.24-20.48-10.24-15.36 0-25.6 10.24-25.6 25.6 0 10.24 5.12 15.36 10.24 20.48l0 0C245.76 829.44 296.96 860.16 353.28 880.64L353.28 880.64M445.44 430.08C445.44 430.08 450.56 435.2 445.44 430.08c20.48 0 35.84-15.36 35.84-35.84 0-20.48-15.36-35.84-35.84-35.84l0 0c-117.76 0-209.92 92.16-209.92 209.92 0 117.76 92.16 209.92 209.92 209.92 117.76 0 209.92-92.16 209.92-209.92 0 0 0 0 0-5.12 0-20.48-15.36-35.84-35.84-35.84-20.48 0-35.84 15.36-35.84 35.84 0 0 0 0 0 0l0 0c0 87.04-56.32 143.36-143.36 143.36C363.52 716.8 307.2 660.48 307.2 573.44 307.2 486.4 363.52 435.2 445.44 430.08L445.44 430.08M1013.76 220.16 819.2 204.8l-15.36-194.56-66.56 71.68 0 0L593.92 204.8l0 0 0 174.08-194.56 174.08 46.08 46.08 199.68-184.32L819.2 414.72l0 0 0 0 138.24-138.24 0 0 0 0L1013.76 220.16 1013.76 220.16M783.36 363.52l-117.76 0L665.6 240.64 747.52 153.6l0 117.76L870.4 271.36 783.36 363.52 783.36 363.52M184.32 675.84c-5.12-5.12-10.24-5.12-15.36-5.12-15.36 0-25.6 10.24-25.6 25.6C143.36 701.44 153.6 716.8 153.6 721.92c0 0 0 0 0 0 0 5.12 10.24 10.24 10.24 10.24 5.12 0 10.24 5.12 10.24 5.12 15.36 0 25.6-10.24 25.6-25.6 0-5.12 0-5.12 0-5.12L184.32 675.84 184.32 675.84M184.32 675.84" p-id="12487" fill="#1afa29"></path></svg>