<?xml version="1.0" standalone="no"?><!DOCTYPE svg PUBLIC "-//W3C//DTD SVG 1.1//EN" "http://www.w3.org/Graphics/SVG/1.1/DTD/svg11.dtd"><svg t="1597497357229" class="icon" viewBox="0 0 1024 1024" version="1.1" xmlns="http://www.w3.org/2000/svg" p-id="17622" xmlns:xlink="http://www.w3.org/1999/xlink" ><defs><style type="text/css"></style></defs><path d="M1002.584896 571.51504h-213.571536a897.84518 897.84518 0 0 1-29.949504 216.259312c49.062578 12.542955 97.101242 29.821515 141.726856 53.456879 61.43488-77.134905 97.613199-172.486959 101.794184-269.716191z m-361.655196 437.552871a492.460295 492.460295 0 0 0 231.44738-135.711357 585.593867 585.593867 0 0 0-125.514874-46.033498c-22.739438 66.213149-54.608783 131.615699-105.932506 181.744855zM382.561898 92.920257c-11.092409 2.133156-21.758187 5.887509-32.551954 9.385884A493.48421 493.48421 0 0 0 151.41316 228.247646c39.676694 20.222315 82.083826 35.197067 125.514874 46.033497 22.739438-66.08516 54.480793-131.445046 105.633864-181.318223z m141.044246 665.03258c54.779435 1.066578 128.543955 7.338055 188.997583 20.051663 18.174485-67.407716 25.256562-137.076577 26.237814-206.617449-71.03408 0.298642-133.108908 0-215.235397 0.127989v186.437797z m107.895009 199.236731c33.831847-41.169903 56.144655-90.019165 73.892509-139.337722-25.896509-6.015499-52.390301-8.959253-78.756104-12.713608-31.058745-2.943755-62.11749-5.75952-93.432214-5.887509V1023.914674c40.743271-8.276644 73.337889-35.965003 98.295809-66.725106zM382.689887 1008.939922c-51.195734-50.129156-83.193067-115.403716-105.804516-181.616866-43.559037 10.580452-85.752854 26.109824-125.642863 45.905508a490.967086 490.967086 0 0 0 231.447379 135.668695z m9.385884-864.354637c-33.789184 41.041913-55.888676 89.848513-73.764519 139.03908 25.128573 6.143488 51.067744 8.831264 76.580285 12.585618 31.741355 3.199733 63.653362 5.972836 95.565369 6.143488V77.646863c-40.657945 8.276644-73.252562 36.092992-98.338471 66.853095zM280.29842 529.918507c70.991417 0.383968 133.663528 0 215.875343 0.127989v-186.437797c-54.736772-1.066578-125.04558-7.338055-185.541871-20.179651-18.302475 67.407716-28.669611 136.948588-30.333472 206.489459zM21.333333 530.217149c71.119407-0.127989 142.281477 0 213.400884 0 1.407883-72.868594 11.092409-145.651862 29.949504-216.216649-49.062578-12.585618-97.058578-29.864178-141.684193-53.371552C61.692637 337.465211 25.173013 432.987918 21.333333 530.217149z m389.386218 447.450712c21.630197 21.928839 48.67861 39.975335 79.780018 46.246813v-224.663945c-57.851179 1.066578-115.702358 6.826098-172.145654 18.601117 20.819598 57.765853 48.12399 115.275727 92.365636 159.816015zM280.383746 571.685693c1.535872 69.540872 11.945671 139.167069 30.376135 206.446796 60.32564-12.969586 130.634447-18.985085 185.371219-20.179652v-186.437797c-82.083826 0-144.755937-0.255979-215.747354 0.170653z m-45.649529-0.298642H21.333333c4.010332 97.229231 40.359303 192.581285 101.794184 269.71619 44.625615-23.635364 92.621615-40.913924 141.726856-53.456878a904.031331 904.031331 0 0 1-30.120156-216.259312z m325.220898-317.968169c-2.943755-5.119573-4.692942-9.257895-7.252729-14.590784l-19.113074-60.453629c-0.68261 0-0.981252-17.065245-0.981252-23.891343 0-24.488626 4.607616-48.209316 12.500292-70.223481a147.273061 147.273061 0 0 0-21.502208-6.570119c-0.127989 74.873761 0 149.747521-0.127989 224.663945 20.094325-0.426631 40.103325-1.493209 60.026997-2.986418l-23.550037-45.948171z m372.022331 43.303058l-117.750187 228.418298H1002.584896c-3.327723-86.776769-28.285643-161.693192-70.564787-228.418298z m-312.421965 41.468544c-31.869344 3.071744-65.999833 4.948921-95.949337 5.460878v186.437797c89.848513-0.127989 131.061078 0.127989 191.216065 0l-95.266728-191.898675z" fill="#007AFF" p-id="17623"></path><path d="M921.183679 161.949171c0 28.456295-8.063328 61.221565-21.758187 89.336555h0.12799l-140.361637 273.555871-140.446963-273.555871h0.12799c-13.865511-28.11499-21.886176-58.021832-21.886176-86.52079 0-86.392801 72.527289-164.764936 162.119823-164.764936 89.549871 0 162.07716 75.513707 162.07716 161.949171z m-162.119823 66.981085c44.796267 0 81.145238-35.026414 81.145238-78.244147 0-43.175069-36.348971-78.201483-81.145238-78.201483-44.796267 0-81.102575 35.026414-81.102575 78.201483 0 43.217732 36.306308 78.244146 81.102575 78.244147z" fill="#B3D82E" p-id="17624"></path></svg>