<?xml version="1.0" standalone="no"?><!DOCTYPE svg PUBLIC "-//W3C//DTD SVG 1.1//EN" "http://www.w3.org/Graphics/SVG/1.1/DTD/svg11.dtd"><svg viewBox="0 0 1024 1024" version="1.1" xmlns="http://www.w3.org/2000/svg" p-id="15439" xmlns:xlink="http://www.w3.org/1999/xlink"><defs><style type="text/css"></style></defs><path d="M512.765 933.435C770.812 933.435 980 724.587 980 466.959 980 209.332 770.812 0.484 512.765 0.484S45.53 209.332 45.53 466.96c0 144.558 66.316 278.256 177.75 366.178 9.875 7.793 24.208 6.117 32.013-3.743s6.126-24.17-3.75-31.962C150.935 718.05 91.113 597.447 91.113 466.959c0-232.492 188.78-420.965 421.652-420.965 232.871 0 421.651 188.473 421.651 420.965 0 232.493-188.78 420.966-421.651 420.966-12.588 0-22.792 10.188-22.792 22.755 0 12.567 10.204 22.755 22.792 22.755z" fill="#000205" p-id="15440"></path><path d="M414.182 1018.999c-62.938 0-113.96-50.939-113.96-113.774 0-62.836 51.022-113.775 113.96-113.775 62.938 0 113.96 50.939 113.96 113.775 0 62.835-51.022 113.774-113.96 113.774z m0-45.51c37.763 0 68.376-30.563 68.376-68.264 0-37.702-30.613-68.265-68.376-68.265-37.763 0-68.376 30.563-68.376 68.265 0 37.701 30.613 68.264 68.376 68.264z" fill="#000205" p-id="15441"></path><path d="M212.458 705.886V228.033h24.89l227.19 226.184 226.551-226.184h53.607v477.853H638.12V414.077L451.774 600.121 266.065 414.077v291.809z" fill="#000205" p-id="15442"></path></svg>