<?xml version="1.0" standalone="no"?><!DOCTYPE svg PUBLIC "-//W3C//DTD SVG 1.1//EN" "http://www.w3.org/Graphics/SVG/1.1/DTD/svg11.dtd"><svg t="1600789388778" class="icon" viewBox="0 0 1024 1024" version="1.1" xmlns="http://www.w3.org/2000/svg" p-id="13114" xmlns:xlink="http://www.w3.org/1999/xlink" ><defs><style type="text/css"></style></defs><path d="M585.28 0l3.456 0.512a9.792 9.792 0 0 1 7.168 9.344l-0.576 36.352 5.888 1.792c3.776 1.344 7.296 3.2 10.56 5.376l24.704-26.368 2.24-1.792a11.2 11.2 0 0 1 5.76-1.536l2.368 0.32a11.136 11.136 0 0 1 4.288 2.112l1.984 2.112a9.216 9.216 0 0 1 1.92 4.8l-0.192 2.56a9.536 9.536 0 0 1-2.432 4.48l-26.624 28.544 2.56 5.056a40.96 40.96 0 0 1 3.328 16.768l-0.512 6.08c-3.584 21.952-24.064 38.656-48.512 38.336l-6.4-0.64-6.016-1.28-0.512 4.8a29.12 29.12 0 0 1-9.216 16l8.96 15.872 19.776 2.048c188.288 22.272 287.232 120.064 291.84 124.8l10.88 10.88 1.088 15.104 1.6 25.6c13.696 269.696-81.536 435.648-165.376 528.128l-10.56 11.392c-91.968 96.32-186.112 129.728-190.208 131.2L513.28 1024l-15.232-5.248-0.832-0.32c-11.008-3.904-108.928-40.96-201.216-142.08l-8.192-9.216C211.2 779.456 128.256 631.104 128 399.936v-2.112l0.32-24.512c0.448-16.576 1.28-33.536 2.56-50.88l1.024-13.44 8.96-10.368 0.64-0.768c9.024-10.176 93.696-99.84 275.584-124.48l5.12-11.008-7.68-2.752c-30.016-12.032-48.448-35.136-42.56-55.936l1.92-4.992c10.112-20.736 44.352-30.272 80.128-21.568l9.216 2.688c23.808 8.064 41.408 23.04 47.168 38.912l2.944-4.352a32.32 32.32 0 0 1 24-11.52l-1.28-4.48a37.568 37.568 0 0 1-1.024-9.28l0.64-6.4a46.72 46.72 0 0 1 38.464-37.12l0.64-35.968c0-5.312 4.672-9.6 10.304-9.6h0.192zM512 251.776L492.8 252.16c-162.752 4.608-247.68 67.52-274.24 91.456l-1.152 23.68c-6.72 187.584 42.24 340.032 145.728 453.504 60.288 66.048 121.984 99.2 149.888 112l5.76-2.752a485.44 485.44 0 0 0 146.24-112.64l12.8-14.912c95.68-116.032 138.56-269.76 127.552-457.536l-4.096-3.264C765.952 313.856 669.312 251.776 512 251.776z m2.368 112.192c36.864 0 66.816 28.544 66.816 63.616 0 14.016-4.8 26.88-12.864 37.44l62.528 103.04 2.368-0.064c36.8 0 66.816 28.544 66.816 63.616s-30.016 63.68-66.816 63.68c-33.344 0-60.992-23.424-65.92-53.76H456.704c-4.992 30.336-32.64 53.76-65.92 53.76-36.864 0-66.88-28.608-66.88-63.68s30.016-63.616 66.88-63.616h0.96l67.968-103.808a61.184 61.184 0 0 1-12.224-36.608c0-35.072 29.952-63.616 66.816-63.616z m118.848 245.76a22.464 22.464 0 0 0-23.04 21.888c0 12.096 10.304 21.888 23.04 21.888 12.672 0 22.976-9.792 22.976-21.888a22.464 22.464 0 0 0-23.04-21.888z m-242.368 0a22.464 22.464 0 0 0-23.04 21.888c0 12.096 10.304 21.888 23.04 21.888 12.672 0 22.976-9.792 22.976-21.888a22.464 22.464 0 0 0-23.04-21.888z m104.64-121.152l-61.76 94.336c5.952 4.736 10.88 10.432 14.848 16.832h126.848c3.776-6.144 8.512-11.584 14.08-16.192l-57.344-94.72a69.568 69.568 0 0 1-36.672-0.256z m18.88-82.88a22.464 22.464 0 0 0-23.04 21.888c0 12.096 10.368 21.888 23.04 21.888 12.672 0 23.04-9.792 23.04-21.888a22.464 22.464 0 0 0-23.04-21.888z" p-id="13115" fill="#2c2c2c"></path></svg>