<svg t="1598278846810" class="icon" viewBox="0 0 1024 1024" version="1.1" xmlns="http://www.w3.org/2000/svg" p-id="2771" ><path d="M585.385993 598.627182c0-3.420133 0-3.420133 0 0v-10.309965c-3.4697 6.889833-3.4697 6.889833 0 10.309965z" fill="#070001" p-id="2772"></path><path d="M877.534725 248.03879c-140.919384-82.479724-281.888334-161.539315-422.807718-244.068606-6.889833-6.889833-17.199798-3.420133-24.040063 0C293.187693 83.029775 152.268309 165.509499 11.299358 244.56909c-6.889833 3.420133-10.309965 10.309965-10.309965 20.619931v491.557343c0 10.309965 3.420133 17.199798 10.309965 20.619931 37.819729 20.619931 72.169758 41.239862 106.569355 61.859793 106.569354 61.859793 209.669009 120.299453 316.238363 182.208812 6.889833 3.420133 13.730098 3.420133 24.040064 0 20.619931-13.730098 44.709562-27.509764 68.749626-41.239861 116.87932-68.749625 233.75864-134.079118 350.637959-202.828744 6.889833-3.420133 10.309965-10.309965 10.309966-20.619931V268.609153c0-10.260398-3.420133-17.150231-10.309966-20.570363z m-175.269412 61.859792v391.877822c0 24.040064-10.309965 37.819729-30.929897 48.129695-13.730098 6.889833-27.509764 10.309965-44.709562 6.889832-24.040064-3.420133-44.709562-10.309965-61.859792-27.509763-10.309965-6.889833-17.199798-17.199798-24.040064-27.509764-44.709562-55.019527-92.789689-109.989487-137.499251-165.009014-34.350029-41.239862-65.329493-79.059591-99.679522-120.299453l-3.420132-3.420133v288.7286c0 30.929896-24.040064 55.019527-55.019528 55.019527-20.619931 0-41.239862-6.889833-51.549827-27.509763-6.889833-10.309965-6.889833-17.199798-6.889833-27.509764V306.47845c0-27.509764 17.199798-44.709562 37.819729-55.019528 20.619931-6.889833 41.239862-6.889833 61.859793 0s34.350029 17.199798 48.129695 34.35003c41.239862 48.129695 82.479724 96.259389 123.769152 147.809216s85.949424 103.099655 127.189286 154.699049V313.318715c0-30.929896 20.619931-55.019527 51.549827-58.43966 37.819729-3.420133 61.859793 20.619931 65.329493 48.129695-0.049567 3.420133-0.049567 6.889833-0.049567 6.889832z" fill="#070001" p-id="2773"></path></svg>