<svg t="1597413735049" class="icon" viewBox="0 0 1024 1024" version="1.1" xmlns="http://www.w3.org/2000/svg" p-id="3055" ><path d="M512 0C229.2 0 0 229.2 0 512s229.2 512 512 512 512-229.2 512-512S794.8 0 512 0z m0 970.2C258.9 970.2 53.8 765.1 53.8 512S258.9 53.8 512 53.8 970.2 258.9 970.2 512 765.1 970.2 512 970.2z" fill="#1796EF" p-id="3056"></path><path d="M501.2 274C390.8 274 301 363.8 301 474.2V833c0 17.4 14.1 31.5 31.5 31.5S364 850.4 364 833V619.8c35.9 33.8 84.2 54.6 137.2 54.6s101.4-20.8 137.2-54.6V643c0 17.4 14.1 31.5 31.5 31.5s31.5-14.1 31.5-31.5V474.2c0-110.4-89.8-200.2-200.2-200.2z m0 337.5c-75.7 0-137.2-61.6-137.2-137.2S425.5 337 501.2 337s137.2 61.6 137.2 137.2-61.5 137.3-137.2 137.3z" fill="#1796EF" p-id="3057"></path><path d="M681.4 201m-41.5 0a41.5 41.5 0 1 0 83 0 41.5 41.5 0 1 0-83 0Z" fill="#1796EF" p-id="3058"></path></svg>