<?xml version="1.0" standalone="no"?><!DOCTYPE svg PUBLIC "-//W3C//DTD SVG 1.1//EN" "http://www.w3.org/Graphics/SVG/1.1/DTD/svg11.dtd"><svg t="1606487680112" class="icon" viewBox="0 0 1277 1024" version="1.1" xmlns="http://www.w3.org/2000/svg" p-id="21889" xmlns:xlink="http://www.w3.org/1999/xlink" width="249.4140625" height="200"><defs><style type="text/css"></style></defs><path d="M146.014431 1006.73653a129.199811 129.199811 0 0 1-128.785488-128.923596V271.899656a129.199811 129.199811 0 0 1 128.785488-128.958123h835.828175a129.199811 129.199811 0 0 1 128.750961 128.923596v605.947805a129.199811 129.199811 0 0 1-128.750961 128.923596zM81.725268 314.678535v520.320993a112.488772 112.488772 0 0 0 113.559107 110.727898h737.25376a112.488772 112.488772 0 0 0 113.593634-110.727898V314.678535a112.488772 112.488772 0 0 0-113.593634-110.727898H195.284375a112.488772 112.488772 0 0 0-113.559107 110.727898z m1069.333873 482.652101a109.830198 109.830198 0 0 0 44.885022-88.009171V188.965945a112.488772 112.488772 0 0 0-113.559107-110.693371H345.234878A114.663969 114.663969 0 0 0 261.02367 114.733023H170.977409A129.303392 129.303392 0 0 1 295.826826 17.228943h835.862701a129.268865 129.268865 0 0 1 128.509273 122.018208v619.758581a129.406973 129.406973 0 0 1-109.174186 120.533549zM192.280531 861.067368l180.817588-213.825342 171.046463 126.644817 260.747454-303.837076 136.519522 391.017601zM151.884011 387.047002a122.087261 122.087261 0 1 1 122.087262 122.259897 122.190842 122.190842 0 0 1-122.087262-122.259897z m48.544878 0a73.542383 73.542383 0 1 0 73.542384-73.645963 73.611437 73.611437 0 0 0-73.438803 73.645963z" p-id="21890" fill="#646c9a"></path></svg>