<?xml version="1.0" standalone="no"?><!DOCTYPE svg PUBLIC "-//W3C//DTD SVG 1.1//EN" "http://www.w3.org/Graphics/SVG/1.1/DTD/svg11.dtd"><svg t="1600789229825" class="icon" viewBox="0 0 1024 1024" version="1.1" xmlns="http://www.w3.org/2000/svg" p-id="941" xmlns:xlink="http://www.w3.org/1999/xlink" ><defs><style type="text/css"></style></defs><path d="M385.164 677a32 32 0 0 1 12.819 2.68L606.855 771h100.958c12.226-43.838 52.45-76 100.187-76 57.438 0 104 46.562 104 104s-46.562 104-104 104c-47.736 0-87.96-32.162-100.187-75.999L598.491 827a16 16 0 0 1-6.41-1.34L380.148 733H120a8 8 0 0 1-8-8v-40a8 8 0 0 1 8-8h265.164zM808 759c-22.091 0-40 17.909-40 40s17.909 40 40 40 40-17.909 40-40-17.909-40-40-40z m0-638c57.438 0 104 46.562 104 104s-46.562 104-104 104c-47.736 0-87.96-32.162-100.187-75.999L454 253v64h71.492c9.538-16.489 27.242-27.663 47.582-27.992L574 289c30.928 0 56 25.072 56 56s-25.072 56-56 56c-20.727 0-38.825-11.261-48.508-27.999L454 373v104c0 8.837-7.163 16-16 16H120a8 8 0 0 1-8-8v-40a8 8 0 0 1 8-8h278v-64H120a8 8 0 0 1-8-8v-40a8 8 0 0 1 8-8h278v-88c0-17.673 14.327-32 32-32h277.813c12.226-43.838 52.45-76 100.187-76z m0 64c-22.091 0-40 17.909-40 40s17.909 40 40 40 40-17.909 40-40-17.909-40-40-40z" fill="#1C6EFF" p-id="942"></path><path d="M512 529c30.928 0 56 25.072 56 56s-25.072 56-56 56c-20.727 0-38.825-11.261-48.508-27.999L120 613a8 8 0 0 1-8-8v-40a8 8 0 0 1 8-8h343.492c9.682-16.738 27.78-28 48.508-28z" fill="#44D7B6" p-id="943"></path></svg>