<?xml version="1.0" standalone="no"?><!DOCTYPE svg PUBLIC "-//W3C//DTD SVG 1.1//EN" "http://www.w3.org/Graphics/SVG/1.1/DTD/svg11.dtd"><svg t="1598367890610" class="icon" viewBox="0 0 1024 1024" version="1.1" xmlns="http://www.w3.org/2000/svg" p-id="9524" xmlns:xlink="http://www.w3.org/1999/xlink" ><defs><style type="text/css"></style></defs><path d="M369.791667 85.347222c15.680556 0 28.430556 12.75 28.430555 28.416667v256.027778a28.458333 28.458333 0 0 1-28.430555 28.430555H113.763889a28.444444 28.444444 0 0 1-28.416667-28.430555V113.763889c0-15.666667 12.736111-28.416667 28.416667-28.416667h256.027778m0-85.347222H113.763889a113.972222 113.972222 0 0 0-80.458333 33.305556A113.972222 113.972222 0 0 0 0 113.763889v256.027778c0 30.166667 11.986111 59.083333 33.305556 80.458333a113.972222 113.972222 0 0 0 80.458333 33.305556h256.027778a113.930556 113.930556 0 0 0 80.458333-33.305556 113.930556 113.930556 0 0 0 33.305556-80.458333V113.763889a113.972222 113.972222 0 0 0-33.305556-80.458333A113.930556 113.930556 0 0 0 369.791667 0z m0 625.763889c15.680556 0 28.430556 12.805556 28.430555 28.472222v255.972222a28.5 28.5 0 0 1-28.430555 28.486111H113.763889a28.5 28.5 0 0 1-28.416667-28.486111v-255.972222c0-15.666667 12.736111-28.472222 28.416667-28.472222h256.027778m0-85.347222H113.763889a113.75 113.75 0 0 0-80.458333 33.375A113.722222 113.722222 0 0 0 0 654.236111v255.972222c0 30.166667 11.986111 59.138889 33.305556 80.458334a113.986111 113.986111 0 0 0 80.458333 33.319444h256.027778a113.944444 113.944444 0 0 0 80.458333-33.319444 113.833333 113.833333 0 0 0 33.305556-80.458334v-255.972222a113.722222 113.722222 0 0 0-33.305556-80.444444 113.708333 113.708333 0 0 0-80.458333-33.375z m540.416666-455.069445c15.680556 0 28.486111 12.75 28.486111 28.416667v398.222222a28.5 28.5 0 0 1-28.486111 28.430556h-255.972222a28.5 28.5 0 0 1-28.472222-28.430556V113.763889c0-15.666667 12.805556-28.416667 28.472222-28.416667h255.972222m0-85.347222h-255.972222a113.777778 113.777778 0 0 0-113.819444 113.763889v398.222222a113.791667 113.791667 0 0 0 113.819444 113.777778h255.972222a113.777778 113.777778 0 0 0 113.777778-113.777778V113.763889a113.986111 113.986111 0 0 0-33.319444-80.458333A113.833333 113.833333 0 0 0 910.208333 0z m0 0" fill="#1afa29" p-id="9525"></path><path d="M910.208333 762.638889c15.680556 0 28.486111 12.805556 28.486111 28.430555v113.819445a28.5 28.5 0 0 1-28.486111 28.430555h-255.972222a28.5 28.5 0 0 1-28.472222-28.430555v-113.819445c0-15.625 12.805556-28.430556 28.472222-28.430555h255.972222m0-85.333333h-255.972222a113.611111 113.611111 0 0 0-80.458333 33.361111 113.527778 113.527778 0 0 0-33.361111 80.402777v113.819445a113.791667 113.791667 0 0 0 113.819444 113.777778h255.972222a113.777778 113.777778 0 0 0 113.777778-113.777778v-113.819445a113.722222 113.722222 0 0 0-33.319444-80.402777 113.652778 113.652778 0 0 0-80.458334-33.361111z m0 0" fill="#1afa29" p-id="9526"></path></svg>