<?xml version="1.0" standalone="no"?><!DOCTYPE svg PUBLIC "-//W3C//DTD SVG 1.1//EN" "http://www.w3.org/Graphics/SVG/1.1/DTD/svg11.dtd"><svg t="1600262544032" class="icon" viewBox="0 0 1024 1024" version="1.1" xmlns="http://www.w3.org/2000/svg" p-id="9024" xmlns:xlink="http://www.w3.org/1999/xlink" width="648" height="648"><defs><style type="text/css"></style></defs><path d="M395.992 832.459L216.825 653.292a27.698 27.698 0 0 1-5.265-15.627 395.456 395.456 0 0 1 15.627-109.016 166.525 166.525 0 0 0-64.887 38.865 27.698 27.698 0 0 1-15.626 5.265c-5.265 0-10.396-5.265-13.011-7.746-54.525-80.48-41.514-186.947 26.022-254.45a201.199 201.199 0 0 1 212.935-46.778l10.294-10.563a579.385 579.385 0 0 1 555.677-150.53c7.746 2.615 13.011 7.746 13.011 13.01 49.394 199.925-7.746 412.86-150.53 555.678L790.71 681.76c28.503 75.282 13.011 158.41-44.13 215.45-67.535 67.536-176.551 77.898-254.448 26.022-2.616-2.616-7.747-7.746-7.747-13.01s0-10.363 5.265-15.627c18.142-18.142 33.768-44.13 38.865-70.151-31.119 5.264-83.028 15.626-114.28 15.626-7.847-2.515-15.594-4.996-18.243-7.612zM248.078 632.501l168.671 168.806c49.394-2.616 127.158-23.473 127.158-23.473 5.264 0 10.361 0 15.626 5.264s5.265 10.362 5.265 15.627a242.947 242.947 0 0 1-38.865 101.27 166.827 166.827 0 0 0 192.312-31.018 162.099 162.099 0 0 0 31.119-186.947 20.12 20.12 0 0 1 5.265-20.757l18.141-18.142C905.192 510.71 959.717 316.05 918.203 134.233c-184.432-44.13-376.51 13.01-508.898 145.433l-21.059 20.522a20.321 20.321 0 0 1-20.757 5.265c-62.27-26.022-135.038-15.626-184.432 33.768s-62.27 129.773-31.119 192.178c26.022-20.757 59.79-33.768 96.04-38.865 5.264 0 10.36 0 15.626 5.265s5.264 10.361 2.615 18.141a756.909 756.909 0 0 0-18.141 116.561z m-132.422 303.71a17.47 17.47 0 0 1 0-26.022l103.952-103.953a18.4 18.4 0 0 1 26.022 26.022L141.677 936.21a17.27 17.27 0 0 1-26.021 0zM89.667 806.537a17.47 17.47 0 0 1 0-26.022l51.81-51.976a18.4 18.4 0 0 1 26.02 26.022l-51.841 51.976a17.27 17.27 0 0 1-25.989 0zM245.43 962.232a17.437 17.437 0 0 1 0-26.022l51.875-51.875a18.4 18.4 0 1 1 26.022 26.021l-51.876 51.876a17.437 17.437 0 0 1-26.021 0z" fill="#e0620d" p-id="9025"></path><path d="M608.927 442.939a72.465 72.465 0 0 1-15.626-20.757 134.3 134.3 0 0 1 0-145.433c20.757-31.12 57.006-51.876 93.524-57.007a123.704 123.704 0 0 1 119.411 57.007 134.334 134.334 0 0 1 0 145.433c-20.757 31.118-57.006 51.875-93.524 57.006-38.865 2.783-77.763-10.228-103.785-36.25z m155.795-155.795a90.808 90.808 0 0 0-72.633-26.022c-28.503 2.616-51.875 15.627-67.535 41.514a94.496 94.496 0 0 0 0 103.953c18.141 28.503 51.876 41.514 85.643 38.898 28.503-2.615 51.876-15.626 67.502-41.514a94.463 94.463 0 0 0 0-103.952z" fill="#e0620d" p-id="9026"></path></svg>