<?xml version="1.0" standalone="no"?><!DOCTYPE svg PUBLIC "-//W3C//DTD SVG 1.1//EN" "http://www.w3.org/Graphics/SVG/1.1/DTD/svg11.dtd"><svg t="1600789449907" class="icon" viewBox="0 0 1024 1024" version="1.1" xmlns="http://www.w3.org/2000/svg" p-id="15799" xmlns:xlink="http://www.w3.org/1999/xlink" ><defs><style type="text/css"></style></defs><path d="M145.278002 85.253868h152.957897a42.623414 42.623414 0 1 0 0-85.182829H42.87941A43.135407 43.135407 0 0 0 0 42.694453V298.242939a42.559415 42.559415 0 1 0 85.11883 0V145.669037l183.037483 182.781487a42.559415 42.559415 0 0 0 60.159173-60.287171z m793.589089 60.287171V298.242939a42.559415 42.559415 0 1 0 85.118829 0V42.694453A42.111421 42.111421 0 0 0 981.10651 0.00704h-255.356489a42.87941 42.87941 0 0 0-37.11949 21.311707 45.503374 45.503374 0 0 0 0 42.559415 42.87941 42.87941 0 0 0 37.11949 21.311707h152.957897l-183.037483 182.909485a42.559415 42.559415 0 1 0 60.159172 60.159172l183.037484-182.781486zM145.278002 938.746132h152.957897a42.623414 42.623414 0 1 1 0 85.182829H42.87941a43.135407 43.135407 0 0 1-42.87941-42.623414V725.757061a42.559415 42.559415 0 1 1 85.11883 0v152.7019l183.037483-182.845486a42.559415 42.559415 0 0 1 60.159173 60.287171z m793.589089-60.287171V725.757061a42.559415 42.559415 0 1 1 85.118829 0v255.548486a42.111421 42.111421 0 0 1-42.87941 42.687413h-255.356489a42.623414 42.623414 0 0 1 0-85.182829h152.957897l-183.037483-182.909485a42.559415 42.559415 0 1 1 60.159172-60.159172l183.037484 182.781486z m0 0" fill="#009688" p-id="15800"></path></svg>