<?xml version="1.0" standalone="no"?><!DOCTYPE svg PUBLIC "-//W3C//DTD SVG 1.1//EN" "http://www.w3.org/Graphics/SVG/1.1/DTD/svg11.dtd"><svg t="1600263082455" class="icon" viewBox="0 0 1024 1024" version="1.1" xmlns="http://www.w3.org/2000/svg" p-id="27479" xmlns:xlink="http://www.w3.org/1999/xlink" width="648" height="648"><defs><style type="text/css"></style></defs><path d="M578.56 904.96c-26.24 0-53.76-7.68-76.8-23.04-22.4-15.36-35.84-35.2-35.84-55.04 0-15.36 7.68-28.8 22.4-38.4 32.64-21.76 88.96-17.92 129.28 8.96 22.4 15.36 35.84 35.2 35.84 55.04 0 15.36-7.68 28.8-22.4 38.4-14.08 9.6-32.64 14.08-52.48 14.08z m-37.76-114.56c-16.64 0-32.64 3.84-43.52 11.52-10.24 6.4-15.36 15.36-15.36 25.6 0 14.72 10.24 30.08 28.8 42.24 34.56 23.04 85.12 26.88 112 8.96 10.24-6.4 15.36-15.36 15.36-25.6 0-14.72-10.24-30.08-28.8-42.24-20.48-13.44-45.44-20.48-68.48-20.48z" fill="#a686ba" p-id="27480"></path><path d="M643.2 873.6c-3.2 0-5.76-1.92-7.04-5.12-3.84-10.88-13.44-21.76-26.88-30.72-34.56-23.04-85.12-26.88-112-8.96-6.4 4.48-10.88 9.6-13.44 15.36-1.28 3.84-5.76 5.76-9.6 4.48-3.84-1.28-5.76-5.76-4.48-9.6 3.84-8.96 10.24-16.64 19.2-22.4 32.64-21.76 88.96-17.92 129.28 8.96 16.64 10.88 27.52 24.32 32.64 38.4 1.28 3.84-0.64 8.32-4.48 9.6-1.28-0.64-2.56 0-3.2 0z" fill="#a686ba" p-id="27481"></path><path d="M97.92 663.68c-2.56 0-5.12-1.28-6.4-3.2-2.56-3.2-1.28-8.32 1.92-10.24l75.52-50.56c3.2-2.56 8.32-1.28 10.24 1.92 2.56 3.2 1.28 8.32-1.92 10.24L102.4 662.4c-1.28 1.28-2.56 1.28-4.48 1.28zM104.96 684.8c-2.56 0-5.12-1.28-6.4-3.2-2.56-3.2-1.28-8.32 1.92-10.24l100.48-66.56c3.2-2.56 8.32-1.28 10.24 1.92 2.56 3.2 1.28 8.32-1.92 10.24L108.8 683.52c-1.28 0.64-2.56 1.28-3.84 1.28zM174.08 714.24c-2.56 0-5.12-1.28-6.4-3.2-2.56-3.2-1.28-8.32 1.92-10.24l75.52-50.56c3.2-2.56 8.32-1.28 10.24 1.92 2.56 3.2 1.28 8.32-1.92 10.24l-75.52 50.56c-1.28 1.28-2.56 1.28-3.84 1.28zM142.72 709.76c-2.56 0-5.12-1.28-6.4-3.2-2.56-3.2-1.28-8.32 1.92-10.24l100.48-66.56c3.2-2.56 8.32-1.28 10.24 1.92 2.56 3.2 1.28 8.32-1.92 10.24L147.2 708.48c-1.28 1.28-3.2 1.28-4.48 1.28zM120.32 699.52c-2.56 0-5.12-1.28-6.4-3.2-2.56-3.2-1.28-8.32 1.92-10.24L223.36 614.4c3.2-2.56 8.32-1.28 10.24 1.92 2.56 3.2 1.28 8.32-1.92 10.24l-106.88 71.68c-1.28 0.64-3.2 1.28-4.48 1.28z" fill="#a686ba" p-id="27482"></path><path d="M174.08 714.24c-46.08 0-83.2-26.24-83.2-58.24s37.12-58.24 83.2-58.24 83.2 26.24 83.2 58.24-37.12 58.24-83.2 58.24z m0-101.12c-37.12 0-68.48 19.84-68.48 42.88s31.36 42.88 68.48 42.88c37.12 0 68.48-19.84 68.48-42.88-0.64-23.04-31.36-42.88-68.48-42.88zM180.48 535.04c-2.56 0-5.12-1.28-6.4-3.2-2.56-3.2-1.28-8.32 1.92-10.24L276.48 454.4c3.2-2.56 8.32-1.28 10.24 1.92 2.56 3.2 1.28 8.32-1.92 10.24L184.96 533.76c-1.28 0.64-2.56 1.28-4.48 1.28zM218.24 560c-2.56 0-5.12-1.28-6.4-3.2-2.56-3.2-1.28-8.32 1.92-10.24L314.24 480c3.2-2.56 8.32-1.28 10.24 1.92 2.56 3.2 1.28 8.32-1.92 10.24L222.72 558.72c-1.28 1.28-2.56 1.28-4.48 1.28zM196.48 549.76c-2.56 0-5.12-1.28-6.4-3.2-2.56-3.2-1.28-8.32 1.92-10.24l106.88-71.68c3.2-2.56 8.32-1.28 10.24 1.92 2.56 3.2 1.28 8.32-1.92 10.24L200.32 548.48c-1.28 0.64-2.56 1.28-3.84 1.28z" fill="#a686ba" p-id="27483"></path><path d="M249.6 564.48c-46.08 0-83.2-26.24-83.2-58.24S203.52 448 249.6 448s83.2 26.24 83.2 58.24-37.12 58.24-83.2 58.24z m0-101.12c-37.12 0-68.48 19.84-68.48 42.88s31.36 42.88 68.48 42.88c37.12 0 68.48-19.84 68.48-42.88s-31.36-42.88-68.48-42.88zM401.28 463.36c-2.56 0-5.12-1.28-6.4-3.2-2.56-3.2-1.28-8.32 1.92-10.24l75.52-50.56c3.2-2.56 8.32-1.28 10.24 1.92 2.56 3.2 1.28 8.32-1.92 10.24l-75.52 50.56c-1.28 1.28-2.56 1.28-3.84 1.28zM407.68 484.48c-2.56 0-5.12-1.28-6.4-3.2-2.56-3.2-1.28-8.32 1.92-10.24l100.48-66.56c3.2-2.56 8.32-1.28 10.24 1.92 2.56 3.2 1.28 8.32-1.92 10.24L412.16 483.2c-1.28 0.64-2.56 1.28-4.48 1.28zM476.8 513.92c-2.56 0-5.12-1.28-6.4-3.2-2.56-3.2-1.28-8.32 1.92-10.24l75.52-50.56c3.2-2.56 8.32-1.28 10.24 1.92 2.56 3.2 1.28 8.32-1.92 10.24l-75.52 50.56c-0.64 1.28-2.56 1.28-3.84 1.28zM446.08 509.44c-2.56 0-5.12-1.28-6.4-3.2-2.56-3.2-1.28-8.32 1.92-10.24L542.08 428.8c3.2-2.56 8.32-1.28 10.24 1.92 2.56 3.2 1.28 8.32-1.92 10.24L449.92 508.16c-1.28 1.28-2.56 1.28-3.84 1.28zM423.68 499.2c-2.56 0-5.12-1.28-6.4-3.2-2.56-3.2-1.28-8.32 1.92-10.24l106.88-71.68c3.2-2.56 8.32-1.28 10.24 1.92 2.56 3.2 1.28 8.32-1.92 10.24L427.52 497.92c-1.28 1.28-2.56 1.28-3.84 1.28z" fill="#a686ba" p-id="27484"></path><path d="M476.8 513.92c-46.08 0-83.2-26.24-83.2-58.24s37.12-58.24 83.2-58.24 83.2 26.24 83.2 58.24c0 32.64-37.12 58.24-83.2 58.24z m0-101.12c-37.12 0-68.48 19.84-68.48 42.88s31.36 42.88 68.48 42.88c37.12 0 68.48-19.84 68.48-42.88s-31.36-42.88-68.48-42.88zM734.72 483.84c-1.28 0-3.2-0.64-4.48-1.28l-30.72-20.48c-3.2-2.56-4.48-7.04-1.92-10.24 2.56-3.2 7.04-4.48 10.24-1.92l30.72 20.48c3.2 2.56 4.48 7.04 1.92 10.24-0.64 2.56-3.2 3.2-5.76 3.2zM704 564.48c-1.28 0-3.2-0.64-4.48-1.28l-75.52-50.56c-3.2-2.56-4.48-7.04-1.92-10.24 2.56-3.2 7.04-4.48 10.24-1.92l75.52 50.56c3.2 2.56 4.48 7.04 1.92 10.24-0.64 1.92-3.2 3.2-5.76 3.2zM751.36 545.92c-1.28 0-3.2-0.64-4.48-1.28L646.4 477.44c-3.2-2.56-4.48-7.04-1.92-10.24 2.56-3.2 7.04-4.48 10.24-1.92l101.12 67.2c3.2 2.56 4.48 7.04 1.92 10.24-1.28 1.92-3.84 3.2-6.4 3.2z" fill="#a686ba" p-id="27485"></path><path d="M704 564.48c-46.08 0-83.2-26.24-83.2-58.24s37.12-58.24 83.2-58.24c9.6 0 18.56 1.28 27.52 3.2 3.84 1.28 6.4 5.12 5.76 8.96-1.28 3.84-5.12 6.4-8.96 5.76-7.68-1.92-16-2.56-24.32-2.56-37.12 0-68.48 19.84-68.48 42.88s31.36 42.88 68.48 42.88c16.64 0 32.64-3.84 45.44-10.88 3.84-1.92 8.32-0.64 10.24 2.56 1.92 3.84 0.64 8.32-2.56 10.24-14.72 8.96-33.92 13.44-53.12 13.44zM174.08 817.28c-2.56 0-5.12-1.28-6.4-3.2-2.56-3.2-1.28-8.32 1.92-10.24l75.52-50.56c3.2-2.56 8.32-1.28 10.24 1.92 2.56 3.2 1.28 8.32-1.92 10.24l-75.52 50.56c-1.28 0.64-2.56 1.28-3.84 1.28zM249.6 867.84c-2.56 0-5.12-1.28-6.4-3.2-2.56-3.2-1.28-8.32 1.92-10.24l75.52-50.56c3.2-2.56 8.32-1.28 10.24 1.92 2.56 3.2 1.28 8.32-1.92 10.24l-75.52 50.56c-0.64 0.64-2.56 1.28-3.84 1.28zM196.48 852.48c-2.56 0-5.12-1.28-6.4-3.2-2.56-3.2-1.28-8.32 1.92-10.24l106.88-71.68c3.2-2.56 8.32-1.28 10.24 1.92 2.56 3.2 1.28 8.32-1.92 10.24L200.32 851.2c-1.28 1.28-2.56 1.28-3.84 1.28z" fill="#a686ba" p-id="27486"></path><path d="M249.6 867.84c-46.08 0-83.2-26.24-83.2-58.24s37.12-58.24 83.2-58.24 83.2 26.24 83.2 58.24-37.12 58.24-83.2 58.24z m0-101.12c-37.12 0-68.48 19.84-68.48 42.88s31.36 42.88 68.48 42.88c37.12 0 68.48-19.84 68.48-42.88s-31.36-42.88-68.48-42.88z" fill="#a686ba" p-id="27487"></path><path d="M862.08 665.6H825.6c-4.48 0-7.68-3.2-7.68-7.68s3.2-7.68 7.68-7.68h36.48c21.76 0 41.6-7.68 51.2-20.48 3.2-4.48 7.04-11.52 5.12-19.84-10.24-41.6-33.92-81.28-69.76-116.48-3.2-3.2-3.2-7.68 0-10.88s7.68-3.2 10.88 0c37.76 37.12 62.72 78.72 73.6 123.52 2.56 11.52 0 23.04-7.68 33.28-12.8 16-37.12 26.24-63.36 26.24zM819.84 466.56c-1.92 0-3.2-0.64-4.48-1.28-16-12.16-33.92-24.32-53.12-34.56-3.84-1.92-5.12-6.4-3.2-10.24 1.92-3.84 6.4-5.12 10.24-3.2 19.84 10.88 38.4 23.04 55.04 35.84 3.2 2.56 3.84 7.04 1.28 10.88-1.28 1.92-3.2 2.56-5.76 2.56zM476.8 968.32c-157.44 0-302.08-53.12-387.84-141.44C38.4 774.4 12.8 713.6 15.36 650.24c2.56-80 51.2-155.52 136.96-212.48C236.8 381.44 348.16 349.44 466.56 347.52c85.12-1.28 168.32 12.8 241.28 40.96 3.84 1.28 5.76 5.76 4.48 9.6-1.28 3.84-5.76 5.76-9.6 4.48-71.04-27.52-152.96-41.6-235.52-40.32-115.2 1.92-224 32.64-305.92 87.68C78.72 504.32 32.64 576 30.08 650.88c-1.92 58.88 21.76 115.84 69.76 165.76C182.4 902.4 323.84 953.6 476.8 953.6c94.72 0 184.96-19.2 261.76-55.68 13.44-6.4 21.12-16 21.76-26.24 0.64-9.6-5.12-18.56-15.36-25.6l-165.76-110.72c-17.92-11.52-25.6-28.8-20.48-46.08 7.04-23.04 34.56-39.04 68.48-39.04h139.52c4.48 0 7.68 3.2 7.68 7.68s-3.2 7.68-7.68 7.68H627.2c-31.36 0-49.92 14.72-53.76 28.16-3.2 10.24 1.92 20.48 14.08 28.8l165.76 110.72c15.36 10.24 23.04 24.32 22.4 39.04-1.28 16-12.16 30.08-30.72 38.4-78.72 37.76-170.88 57.6-268.16 57.6z" fill="#a686ba" p-id="27488"></path><path d="M568.32 720.64c-1.28 0-2.56 0-3.2-0.64-3.84-1.92-5.12-6.4-3.2-10.24 10.24-19.84 35.84-32.64 65.92-32.64h133.12c4.48 0 7.68 3.2 7.68 7.68s-3.2 7.68-7.68 7.68H627.84c-29.44 0-46.72 12.8-52.48 24.32-1.92 2.56-4.48 3.84-7.04 3.84zM862.08 692.48h-28.8c-4.48 0-7.68-3.2-7.68-7.68s3.2-7.68 7.68-7.68h28.8c21.76 0 41.6-7.68 51.2-20.48 3.2-4.48 7.04-11.52 5.12-19.84-1.28-3.84 1.28-8.32 5.76-8.96 3.84-1.28 8.32 1.28 8.96 5.76 2.56 11.52 0 23.04-7.68 33.28-12.8 15.36-37.12 25.6-63.36 25.6zM476.8 995.2c-157.44 0-302.08-53.12-387.84-141.44C38.4 801.28 12.8 740.48 15.36 677.12v-26.24c0-4.48 3.2-7.68 7.68-7.68s7.68 3.2 7.68 7.68v26.88c-1.92 58.88 21.76 116.48 69.76 165.76 82.56 85.76 224 136.96 376.96 136.96 94.72 0 184.96-19.2 261.76-55.68 13.44-6.4 21.76-16.64 21.76-26.88 0-4.48 3.84-7.68 7.68-7.68 4.48 0 7.68 3.84 7.68 7.68-0.64 16.64-11.52 31.36-30.72 40.32-79.36 37.12-171.52 56.96-268.8 56.96z" fill="#a686ba" p-id="27489"></path><path d="M903.68 337.92h-1.92l-54.4-14.08c-3.84-1.28-6.4-5.12-5.12-8.96l11.52-43.52c1.28-3.84 5.12-6.4 8.96-5.12 3.84 1.28 6.4 5.12 5.12 8.96l-9.6 36.48 39.68 10.24 9.6-36.48c1.28-3.84 5.12-6.4 8.96-5.12 3.84 1.28 6.4 5.12 5.12 8.96l-11.52 43.52c-0.64 1.92-1.92 3.84-3.2 4.48 0 0-1.92 0.64-3.2 0.64z" fill="#a686ba" p-id="27490"></path><path d="M817.28 634.24h-1.92c-3.84-1.28-6.4-5.12-5.12-8.96l76.8-291.2-24.32-6.4-59.52 224c-1.28 3.84-5.12 6.4-8.96 5.12-3.84-1.28-6.4-5.12-5.12-8.96l61.44-231.04c1.28-3.84 5.12-6.4 8.96-5.12l39.04 10.24c1.92 0.64 3.84 1.92 4.48 3.2 1.28 1.92 1.28 3.84 0.64 5.76l-78.72 298.24c-1.28 2.56-4.48 5.12-7.68 5.12zM767.36 763.52c-2.56 0-4.48 0-7.04-0.64-7.04-1.92-12.8-6.4-16.64-12.8-3.84-6.4-4.48-14.08-2.56-21.12l27.52-104.32c1.28-3.84 5.12-6.4 8.96-5.12 3.84 1.28 6.4 5.12 5.12 8.96l-27.52 104.32c-0.64 3.2-0.64 6.4 1.28 9.6 1.92 3.2 4.48 5.12 7.68 5.76 3.2 0.64 6.4 0.64 9.6-1.28 3.2-1.92 5.12-4.48 5.76-7.68l9.6-37.12c1.28-3.84 5.12-6.4 8.96-5.12 3.84 1.28 6.4 5.12 5.12 8.96l-9.6 37.12c-1.92 7.04-6.4 12.8-12.8 16.64-3.84 2.56-8.32 3.84-13.44 3.84zM903.68 294.4c-6.4 0-12.16-0.64-18.56-2.56-38.4-10.24-60.8-49.28-50.56-87.68 19.84-72.96 46.72-88.96 92.16-114.56l8.32-4.48c3.84-1.92 8.32-0.64 10.24 2.56l3.84 6.4c26.88 46.72 43.52 74.24 23.68 147.84-5.12 18.56-16.64 33.92-33.28 43.52-11.52 5.76-23.68 8.96-35.84 8.96z m32-193.28l-1.28 1.28c-44.8 25.6-67.2 38.4-85.12 105.6-8.32 30.08 9.6 60.8 39.68 69.12 14.72 3.84 29.44 1.92 42.88-5.76 12.8-7.68 22.4-19.84 26.24-34.56 17.92-66.56 4.48-89.6-22.4-135.68z" fill="#a686ba" p-id="27491"></path><path d="M897.28 293.76c-3.84 0-8.32-0.64-12.16-1.92-3.84-1.28-6.4-5.12-5.12-8.96 1.28-3.84 5.12-6.4 8.96-5.12 8.96 2.56 17.28 1.28 24.32-3.84 7.04-5.12 12.16-12.8 14.72-23.04l0.64-1.28c12.8-48.64 18.56-69.12 0.64-100.48-1.92-3.84-0.64-8.32 2.56-10.24 3.84-1.92 8.32-0.64 10.24 2.56 21.12 36.48 14.72 62.08 1.28 112l-0.64 1.28c-3.84 13.44-10.88 24.32-20.48 31.36-7.68 4.48-16 7.68-24.96 7.68z" fill="#a686ba" p-id="27492"></path><path d="M893.44 293.12c-2.56 0-5.12-0.64-7.68-1.28-3.84-1.28-6.4-5.12-5.12-8.96 1.28-3.84 5.12-6.4 8.96-5.12 1.92 0.64 4.48 0.64 5.76 0 3.2-1.92 5.12-9.6 7.04-16.64l0.64-2.56c8.96-32.64 10.24-67.84 10.24-68.48 0-4.48 3.84-7.68 7.68-7.04 4.48 0 7.68 3.84 7.04 7.68 0 1.28-1.28 37.76-10.88 71.68l-0.64 2.56c-2.56 10.88-5.76 21.12-14.08 26.24-2.56 1.28-5.76 1.92-8.96 1.92z" fill="#a686ba" p-id="27493"></path><path d="M716.16 444.8c-3.2 0-6.4-1.92-7.04-5.76l-12.16-43.52c-1.28-3.84 1.28-8.32 5.12-9.6 3.84-1.28 8.32 1.28 9.6 5.12l10.24 36.48 39.68-10.88-9.6-36.48c-1.28-3.84 1.28-8.32 5.12-9.6 3.84-1.28 8.32 1.28 9.6 5.12l12.16 43.52c1.28 3.84-1.28 8.32-5.12 9.6l-54.4 14.72c-1.92 1.28-2.56 1.28-3.2 1.28z" fill="#a686ba" p-id="27494"></path><path d="M855.04 870.4c-4.48 0-9.6-1.28-13.44-3.84-6.4-3.84-10.88-9.6-12.8-16.64L716.8 437.76c-1.28-3.84 1.28-8.32 5.12-9.6l38.4-10.24c1.92-0.64 3.84 0 5.76 0.64 1.92 1.28 3.2 2.56 3.84 4.48l112 412.16c1.92 7.04 1.28 14.72-2.56 21.12-3.84 6.4-9.6 10.88-16.64 12.8-3.2 0.64-5.76 1.28-7.68 1.28z m-122.24-429.44l110.08 405.12c0.64 3.2 3.2 5.76 5.76 7.68 3.2 1.92 6.4 1.92 9.6 1.28 3.2-0.64 5.76-3.2 7.68-5.76 1.92-3.2 1.92-6.4 1.28-9.6l-110.08-405.12-24.32 6.4zM716.16 401.28c-31.36 0-60.8-21.12-69.12-53.12-19.84-72.96-3.84-100.48 22.4-145.92l5.12-8.32c1.92-3.84 7.04-5.12 10.24-2.56l6.4 3.84c46.72 26.88 74.88 42.88 94.08 115.84 5.12 18.56 2.56 37.76-7.04 54.4-9.6 16.64-24.96 28.16-43.52 33.28-6.4 1.92-12.16 2.56-18.56 2.56z m-32.64-192.64l-1.28 1.92c-26.24 44.8-39.04 67.2-21.12 134.4 8.32 30.08 39.04 48 69.12 39.68 14.72-3.84 26.88-13.44 34.56-26.24 7.68-12.8 9.6-28.16 5.76-42.88-17.92-67.2-40.96-80.64-87.04-106.88z" fill="#a686ba" p-id="27495"></path><path d="M732.8 399.36c-3.2 0-6.4-1.92-7.04-5.76-1.28-3.84 1.28-8.32 5.12-8.96 8.96-2.56 15.36-7.68 19.2-15.36 3.84-7.68 3.84-17.28 1.28-27.52l-0.64-1.28c-12.8-48.64-18.56-69.12-49.92-87.04-3.84-1.92-5.12-7.04-2.56-10.24 1.92-3.84 7.04-5.12 10.24-2.56 36.48 21.12 43.52 46.08 56.96 96.64l0.64 1.28c3.84 13.44 2.56 26.88-1.92 37.76-5.76 12.16-16 20.48-28.8 23.68-1.28-0.64-1.92-0.64-2.56-0.64z" fill="#a686ba" p-id="27496"></path><path d="M733.44 399.36c-3.2 0-6.4-1.92-7.04-5.76-1.28-3.84 1.28-8.32 5.12-8.96 1.92-0.64 3.84-1.28 5.12-2.56 1.92-3.2-0.64-10.88-2.56-17.92l-0.64-2.56c-8.96-32.64-25.6-64-25.6-64.64-1.92-3.84-0.64-8.32 3.2-10.24 3.84-1.92 8.32-0.64 10.24 3.2 0.64 1.28 17.28 33.28 26.88 67.84l0.64 2.56c3.2 10.88 5.76 21.12 0.64 29.44-2.56 4.48-7.68 8.32-14.08 9.6-0.64-0.64-1.28 0-1.92 0z" fill="#a686ba" p-id="27497"></path></svg>