<svg t="1636639466645" class="icon" viewBox="0 0 1024 1024" version="1.1" xmlns="http://www.w3.org/2000/svg" ><path d="M511.988 257.402c-140.74 0-255.238 114.498-255.238 255.238 0 140.738 114.5 255.236 255.238 255.236 140.734 0 255.234-114.498 255.234-255.236s-114.5-255.238-255.234-255.238z m0 496.516c-133.042 0-241.284-108.238-241.284-241.278 0-133.042 108.24-241.28 241.284-241.28 133.038 0 241.278 108.238 241.278 241.28 0 133.04-108.24 241.278-241.278 241.278z" fill="#4A555F" p-id="10845"></path><path d="M511.988 289.088c-123.266 0-223.554 100.286-223.554 223.552s100.288 223.55 223.554 223.55c123.268 0 223.55-100.284 223.55-223.55s-100.284-223.552-223.55-223.552z" fill="#71CCE0" p-id="10846"></path><path d="M511.988 257.472c-77.806 0-141.106 114.468-141.106 255.168s63.3 255.166 141.106 255.166 141.106-114.468 141.106-255.166c0-140.702-63.3-255.168-141.106-255.168z m0 496.378c-70.11 0-127.15-108.206-127.15-241.21 0-133.004 57.042-241.212 127.15-241.212s127.15 108.206 127.15 241.212c0 133.004-57.04 241.21-127.15 241.21z" fill="#4A555F" p-id="10847"></path><path d="M263.726 505.662h496.518v13.958H263.726zM693.522 343.636c-0.768 0.728-77.71 72.802-183.528 72.802-105.49 0-178.688-71.954-179.416-72.68l-9.878 9.86c3.126 3.136 77.848 76.778 189.294 76.778 111.342 0 189.862-73.52 193.148-76.652l-9.62-10.108zM513.976 590.806c-111.338 0-189.858 73.522-193.144 76.652l9.622 10.11c0.768-0.728 77.71-72.804 183.522-72.804 105.494 0 178.692 71.954 179.422 72.68l9.878-9.86c-3.128-3.134-77.852-76.778-189.3-76.778z" fill="#4A555F" p-id="10848"></path><path d="M505.01 264.45h13.956v496.378h-13.956zM504.576 192.152h14.824v-14.824h-14.824v14.824z m0 29.648h14.824v-14.824h-14.824v14.824z m0-59.296h14.824V147.68h-14.824v14.824z m0-29.648h14.824v-14.824h-14.824v14.824z m0-44.472v14.824h14.824v-14.824h-14.824zM504.576 930.48h14.824v-14.824h-14.824v14.824z m0-59.294h14.824v-14.824h-14.824v14.824z m0 29.648h14.824v-14.824h-14.824v14.824z m0-59.296h14.824v-14.824h-14.824v14.824z m0-44.472v14.824h14.824v-14.824h-14.824zM511.988 0c-17.444 0-31.636 14.19-31.636 31.634s14.192 31.634 31.636 31.634 31.63-14.19 31.63-31.634S529.432 0 511.988 0z m0 49.312c-9.748 0-17.68-7.93-17.68-17.678 0-9.748 7.932-17.676 17.68-17.676s17.676 7.93 17.676 17.676c0 9.748-7.928 17.678-17.676 17.678zM511.988 960.73c-17.444 0-31.636 14.19-31.636 31.634 0 17.444 14.192 31.634 31.636 31.634s31.63-14.19 31.63-31.634c0-17.442-14.186-31.634-31.63-31.634z m0 49.312c-9.748 0-17.68-7.93-17.68-17.678 0-9.748 7.932-17.676 17.68-17.676s17.676 7.93 17.676 17.676c0 9.748-7.928 17.678-17.676 17.678zM957.62 277.194a31.596 31.596 0 0 0-26.334-14.074c-6.254 0-12.318 1.842-17.54 5.326a31.46 31.46 0 0 0-13.464 20.126 31.44 31.44 0 0 0 4.714 23.748 31.596 31.596 0 0 0 26.334 14.074c6.254 0 12.32-1.842 17.54-5.326a31.448 31.448 0 0 0 13.462-20.126 31.432 31.432 0 0 0-4.712-23.748z m-8.976 21.018a17.572 17.572 0 0 1-7.522 11.246 17.662 17.662 0 0 1-24.514-4.886 17.566 17.566 0 0 1-2.634-13.268 17.58 17.58 0 0 1 7.522-11.246 17.66 17.66 0 0 1 24.512 4.886 17.56 17.56 0 0 1 2.636 13.268zM119.002 711.684a31.6 31.6 0 0 0-26.338-14.07c-6.254 0-12.32 1.84-17.542 5.324a31.426 31.426 0 0 0-13.458 20.128 31.44 31.44 0 0 0 4.714 23.748 31.584 31.584 0 0 0 26.332 14.074c6.254 0 12.32-1.842 17.54-5.326a31.448 31.448 0 0 0 13.462-20.126 31.43 31.43 0 0 0-4.71-23.752z m-8.976 21.022a17.58 17.58 0 0 1-7.522 11.246 17.584 17.584 0 0 1-9.792 2.978 17.65 17.65 0 0 1-14.722-7.864 17.56 17.56 0 0 1-2.634-13.272 17.542 17.542 0 0 1 7.518-11.244 17.6 17.6 0 0 1 9.792-2.978 17.666 17.666 0 0 1 14.728 7.864 17.58 17.58 0 0 1 2.632 13.27zM962.316 723.142a31.436 31.436 0 0 0-13.458-20.128 31.504 31.504 0 0 0-17.546-5.33 31.6 31.6 0 0 0-26.332 14.068c-9.686 14.506-5.762 34.19 8.744 43.876a31.504 31.504 0 0 0 17.546 5.33c10.602 0 20.446-5.26 26.328-14.068a31.424 31.424 0 0 0 4.718-23.748z m-16.33 15.996a17.654 17.654 0 0 1-14.718 7.862 17.602 17.602 0 0 1-9.796-2.978c-8.106-5.412-10.298-16.412-4.884-24.516a17.66 17.66 0 0 1 14.722-7.862c3.49 0 6.876 1.03 9.796 2.978a17.566 17.566 0 0 1 7.518 11.248 17.542 17.542 0 0 1-2.638 13.268zM110.326 268.37a31.486 31.486 0 0 0-17.54-5.33 31.604 31.604 0 0 0-26.334 14.068c-9.684 14.506-5.762 34.19 8.744 43.878a31.48 31.48 0 0 0 17.54 5.33c10.606 0 20.45-5.26 26.334-14.068 9.684-14.508 5.76-34.192-8.744-43.878z m-2.868 36.124a17.66 17.66 0 0 1-24.512 4.884c-8.106-5.414-10.298-16.412-4.884-24.518a17.656 17.656 0 0 1 14.722-7.862c3.484 0 6.872 1.03 9.79 2.978 8.108 5.414 10.3 16.412 4.884 24.518z" fill="#4A555F" p-id="10849"></path><path d="M109.448 275.03L485.39 35.076l7.51 11.766L116.96 286.794zM532.87 46.864l7.508-11.766 375.99 239.912-7.508 11.766zM532.846 977.73l375.946-239.954 7.51 11.764-375.946 239.956zM109.43 749.578l7.508-11.766L492.924 977.72l-7.508 11.766zM85.71 319.328h13.956v385.336h-13.956zM924.33 319.328h13.956v385.336h-13.956zM161.74 679.206l6.728 13.212 13.212-6.722-6.726-13.212-13.214 6.722z m-26.424 13.444l6.726 13.212 13.212-6.722-6.726-13.212-13.212 6.722z m118.91-60.496l-13.212 6.722 6.726 13.212 13.212-6.722-6.726-13.212z m-39.636 20.166l6.726 13.212 13.212-6.722-6.726-13.212-13.212 6.722z m-26.424 13.444l6.722 13.212 13.218-6.722-6.722-13.212-13.218 6.722zM809.864 347.91l6.722 13.212 13.216-6.722-6.722-13.212-13.216 6.722z m-26.424 13.442l6.728 13.212 13.212-6.722-6.726-13.212-13.214 6.722z m-26.424 13.444l6.726 13.212 13.212-6.722-6.726-13.212-13.212 6.722z m118.908-60.496l-13.212 6.722 6.726 13.212 13.212-6.722-6.726-13.212z m-39.636 20.166l6.728 13.212 13.212-6.722-6.726-13.212-13.214 6.722zM188.17 351.79l13.212 6.72 6.718-13.212-13.212-6.72-6.718 13.212z m-52.854-26.886l13.216 6.722 6.718-13.212-13.208-6.722-6.726 13.212z m26.424 13.442l13.212 6.722 6.726-13.212-13.212-6.722-6.726 13.212z m52.854 26.886l13.208 6.722 6.726-13.212-13.218-6.722-6.716 13.212z m33.142 0.232l-6.716 13.212 13.216 6.722 6.718-13.212-13.218-6.722zM809.864 669.644l13.216 6.722 6.722-13.212-13.216-6.722-6.722 13.212z m-52.848-26.888l13.212 6.722 6.726-13.212-13.212-6.722-6.726 13.212z m26.424 13.444l13.212 6.722 6.726-13.212-13.212-6.722-6.726 13.212z m52.852 26.888l13.212 6.72 6.718-13.212-13.212-6.72-6.718 13.212z m33.148 0.23l-6.726 13.212 13.212 6.722 6.726-13.212-13.212-6.722z" fill="#4A555F" p-id="10850"></path></svg>