<svg t="1637068487687" class="icon" viewBox="0 0 1024 1024" version="1.1" xmlns="http://www.w3.org/2000/svg"><path d="M723 245c53.572 0 97 43.428 97 97 0 42.358-27.15 78.375-64.999 91.597L755 560H880c17.673 0 32 14.327 32 32v272c0 17.673-14.327 32-32 32H144c-17.673 0-32-14.327-32-32V592c0-17.673 14.327-32 32-32h124.999V435.598C231.152 422.376 204 386.358 204 344c0-53.572 43.428-97 97-97s97 43.428 97 97c0 42.358-27.15 78.375-64.999 91.597L333 560h358V433.598C653.152 420.376 626 384.358 626 342c0-53.572 43.428-97 97-97z m117 387H184v192h656V632zM301 312c-17.673 0-32 14.327-32 32 0 17.673 14.327 32 32 32 17.673 0 32-14.327 32-32 0-17.673-14.327-32-32-32z m422-2c-17.673 0-32 14.327-32 32 0 17.673 14.327 32 32 32 17.673 0 32-14.327 32-32 0-17.673-14.327-32-32-32zM446.995 187.072l16.612 16.583c3.066 3.05 3.135 7.967 0.21 11.106l-0.195 0.202c-0.001 0.002-0.003 0.004-0.01 0l-28.284 28.285a8 8 0 0 1-11.314 0l-14.142-14.142c-59.54-59.54-155.702-60.135-215.973-1.787l-15.954 15.933a8.016 8.016 0 0 1-11.318-0.004l-28.284-28.285a8 8 0 0 1 0-11.313l14.142-14.142c81.19-81.19 212.32-82.002 294.51-2.436z m422 0l16.612 16.583c3.066 3.05 3.135 7.967 0.21 11.106l-0.195 0.202c-0.001 0.002-0.003 0.004-0.01 0l-28.284 28.285a8 8 0 0 1-11.314 0l-14.142-14.142c-59.54-59.54-155.702-60.135-215.973-1.787l-15.954 15.933a8.016 8.016 0 0 1-11.318-0.004l-28.284-28.285a8 8 0 0 1 0-11.313l14.142-14.142c81.19-81.19 212.32-82.002 294.51-2.436z" fill="#1C6EFF" p-id="4477"></path><path d="M510 696a8 8 0 0 1 8 8v48a8 8 0 0 1-8 8H264a8 8 0 0 1-8-8v-48a8 8 0 0 1 8-8h246z m122 0a8 8 0 0 1 8 8v48a8 8 0 0 1-8 8h-48a8 8 0 0 1-8-8v-48a8 8 0 0 1 8-8h48z" fill="#44D7B6" p-id="4478"></path></svg>