<svg t="1636639588314" class="icon" viewBox="0 0 1026 1024" version="1.1" xmlns="http://www.w3.org/2000/svg"  ><path d="M785.408 339.456l-243.2-182.784-25.6 33.792-25.088-33.792-249.856 187.392 30.72 40.96 244.224-183.296 238.08 178.688zM371.2 528.896L266.24 423.936l-19.456 19.968-19.456-19.968L122.88 528.896l35.84 36.352 88.064-88.064 88.064 88.064zM395.776 836.096l-261.12-179.2-28.672 41.472-11.776-3.072-38.912 142.848 49.152 13.312 35.328-129.024 226.816 155.648zM912.896 528.896l-104.448-104.96-19.456 19.968-19.968-19.968-104.448 104.96 36.352 36.352 88.064-88.064 87.552 88.064zM978.432 838.144l-38.912-142.848-11.776 3.072-29.184-41.472-260.608 179.2 29.184 41.984 226.304-155.648 35.328 129.024z" p-id="19729"></path><path d="M516.608 102.4m-102.4 0a102.4 102.4 0 1 0 204.8 0 102.4 102.4 0 1 0-204.8 0Z" fill="#297AFF" p-id="19730"></path><path d="M786.944 368.128m-102.4 0a102.4 102.4 0 1 0 204.8 0 102.4 102.4 0 1 0-204.8 0Z" fill="#297AFF" p-id="19731"></path><path d="M246.784 368.128m-102.4 0a102.4 102.4 0 1 0 204.8 0 102.4 102.4 0 1 0-204.8 0Z" fill="#297AFF" p-id="19732"></path><path d="M102.4 614.4m-102.4 0a102.4 102.4 0 1 0 204.8 0 102.4 102.4 0 1 0-204.8 0Z" fill="#297AFF" p-id="19733"></path><path d="M371.712 614.4m-102.4 0a102.4 102.4 0 1 0 204.8 0 102.4 102.4 0 1 0-204.8 0Z" fill="#FFC65F" p-id="19734"></path><path d="M653.824 605.696m-102.4 0a102.4 102.4 0 1 0 204.8 0 102.4 102.4 0 1 0-204.8 0Z" fill="#FFC65F" p-id="19735"></path><path d="M923.648 605.696m-102.4 0a102.4 102.4 0 1 0 204.8 0 102.4 102.4 0 1 0-204.8 0Z" fill="#297AFF" p-id="19736"></path><path d="M102.4 921.6m-102.4 0a102.4 102.4 0 1 0 204.8 0 102.4 102.4 0 1 0-204.8 0Z" fill="#FFC65F" p-id="19737"></path><path d="M371.712 921.6m-102.4 0a102.4 102.4 0 1 0 204.8 0 102.4 102.4 0 1 0-204.8 0Z" fill="#FFC65F" p-id="19738"></path><path d="M652.288 921.6m-102.4 0a102.4 102.4 0 1 0 204.8 0 102.4 102.4 0 1 0-204.8 0Z" fill="#FFC65F" p-id="19739"></path><path d="M921.6 921.6m-102.4 0a102.4 102.4 0 1 0 204.8 0 102.4 102.4 0 1 0-204.8 0Z" fill="#FFC65F" p-id="19740"></path></svg>